<svg width="26" height="26" viewBox="0 0 26 26" fill="none" xmlns="http://www.w3.org/2000/svg">
<path d="M18.478 11.9721L18.4422 6.85207C18.4292 4.99486 17.4147 3.27953 15.7899 2.36757V2.36757C13.6444 1.16336 10.9634 1.63994 9.39219 3.50482L9.13995 3.8042C8.29722 4.80445 7.83547 6.07316 7.83547 7.38844L7.83547 11.9721" stroke="black" stroke-width="1.5"/>
<path d="M18.478 11.9721L18.4422 6.85207C18.4292 4.99486 17.4147 3.27953 15.7899 2.36757V2.36757C13.6444 1.16336 10.9634 1.63994 9.39219 3.50482L9.13995 3.8042C8.29722 4.80445 7.83547 6.07316 7.83547 7.38844L7.83547 11.9721" stroke="black" stroke-width="1.5"/>
<path d="M20.1185 9.33337H6.08157C5.38362 9.33337 4.70368 9.55494 4.13972 9.96616C3.4637 10.4591 3.00044 11.1907 2.84389 12.0126L0.829226 22.5896C0.737418 23.0715 0.809445 23.5704 1.03385 24.0067C1.41067 24.7395 2.16548 25.2 2.98941 25.2H22.3802C22.9364 25.2 23.4706 24.9831 23.8694 24.5954C24.3807 24.0984 24.6102 23.3791 24.4814 22.6778L22.3758 11.2138C22.3176 10.8971 22.1934 10.5961 22.0113 10.3305C21.5833 9.7064 20.8752 9.33337 20.1185 9.33337Z" stroke="black"/>
</svg>
