<svg width="27" height="25" viewBox="0 0 27 25" fill="none" xmlns="http://www.w3.org/2000/svg">
<path d="M7.13208 2.30189L7.19271 2.39486M7.19271 2.39486L9.75586 6.32502C9.89055 6.53155 9.96226 6.77279 9.96226 7.01936V7.01936C9.96226 7.33476 9.845 7.6389 9.63326 7.87266L7.8637 9.82625C7.69642 10.0109 7.60377 10.2512 7.60377 10.5004V10.5004C7.60377 10.8044 7.74147 11.092 7.97826 11.2826L14.9986 16.934C15.0998 17.0154 15.2106 17.0841 15.3286 17.1383V17.1383C15.8071 17.3584 16.3639 17.3253 16.8128 17.0499L17.1249 16.8585C17.3787 16.7028 17.5994 16.4985 17.7742 16.2573L18.0728 15.8452C18.3194 15.5049 18.6702 15.2541 19.0721 15.1309V15.1309C19.5801 14.9751 20.1299 15.0351 20.5923 15.2969L25.0486 17.8198C25.6366 18.1527 26 18.7761 26 19.4518V19.4518C26 19.8683 25.8614 20.2729 25.606 20.6019L24.7349 21.7238C24.0234 22.6402 23.0462 23.3146 21.9369 23.6548V23.6548C21.1945 23.8825 20.4131 23.9542 19.6417 23.8655L18.3335 23.715C17.4722 23.616 16.6243 23.4234 15.8048 23.1407L15.6202 23.077C14.0622 22.5395 12.6139 21.7257 11.3445 20.6747L5.17916 15.5698C4.28497 14.8294 3.50765 13.9583 2.87347 12.9859L2.24727 12.0257C1.43336 10.7777 1 9.3199 1 7.82995V7.33082C1 6.03652 1.40892 4.77531 2.16839 3.72725L2.48001 3.2972C2.74856 2.92661 3.08761 2.61268 3.47774 2.3734L4.62423 1.67022C5.27085 1.27363 6.10214 1.35434 6.66038 1.86792V1.86792L7.19271 2.39486Z" stroke="black"/>
</svg>
