<svg width="148" height="43" viewBox="0 0 148 43" fill="none" xmlns="http://www.w3.org/2000/svg">
<path d="M81.98 25.82C81.54 26.84 80.97 27.76 80.27 28.58C79.59 29.38 78.81 30.07 77.93 30.65C77.05 31.21 76.08 31.64 75.02 31.94C73.98 32.24 72.89 32.39 71.75 32.39C70.13 32.39 68.61 32.09 67.19 31.49C65.77 30.89 64.53 30.07 63.47 29.03C62.43 27.99 61.6 26.77 60.98 25.37C60.38 23.95 60.08 22.44 60.08 20.84C60.08 19.28 60.38 17.81 60.98 16.43C61.58 15.03 62.39 13.82 63.41 12.8C64.45 11.76 65.66 10.94 67.04 10.34C68.44 9.74 69.92 9.44 71.48 9.44C73.84 9.44 75.94 10.03 77.78 11.21C79.62 12.39 81.02 14.05 81.98 16.19H77.39C76.63 15.21 75.79 14.5 74.87 14.06C73.97 13.62 72.87 13.4 71.57 13.4C70.53 13.4 69.56 13.59 68.66 13.97C67.76 14.35 66.98 14.88 66.32 15.56C65.66 16.22 65.14 17.01 64.76 17.93C64.4 18.83 64.22 19.81 64.22 20.87C64.22 21.91 64.41 22.89 64.79 23.81C65.19 24.73 65.73 25.53 66.41 26.21C67.09 26.89 67.88 27.43 68.78 27.83C69.68 28.23 70.64 28.43 71.66 28.43C72.72 28.43 73.67 28.23 74.51 27.83C75.35 27.43 76.23 26.76 77.15 25.82H81.98ZM91.0927 28.07C91.6327 28.07 92.1927 28.05 92.7727 28.01C93.3727 27.97 93.9127 27.85 94.3927 27.65C94.8927 27.45 95.3027 27.15 95.6227 26.75C95.9427 26.33 96.1027 25.75 96.1027 25.01C96.1027 24.31 95.9227 23.77 95.5627 23.39C95.2227 22.99 94.7927 22.7 94.2727 22.52C93.7527 22.32 93.1927 22.2 92.5927 22.16C91.9927 22.1 91.4327 22.07 90.9127 22.07H89.5927V28.07H91.0927ZM85.4827 9.83H98.8327V13.76H89.5927V18.14H90.9727C91.7927 18.14 92.5027 18.16 93.1027 18.2C93.7227 18.22 94.2627 18.27 94.7227 18.35C95.1827 18.41 95.5927 18.5 95.9527 18.62C96.3127 18.72 96.6527 18.86 96.9727 19.04C97.9927 19.58 98.7927 20.39 99.3727 21.47C99.9527 22.55 100.243 23.76 100.243 25.1C100.243 26.36 99.9827 27.49 99.4627 28.49C98.9627 29.49 98.2327 30.28 97.2727 30.86C96.9327 31.06 96.5627 31.24 96.1627 31.4C95.7827 31.54 95.3427 31.66 94.8427 31.76C94.3627 31.84 93.8127 31.9 93.1927 31.94C92.5727 31.98 91.8527 32 91.0327 32H85.4827V9.83ZM103.742 9.83H115.652V13.76H107.852V18.98H115.322V22.91H107.852V28.07H115.652V32H103.742V9.83ZM119.774 9.83H125.264C126.764 9.83 127.944 9.92 128.804 10.1C129.684 10.26 130.454 10.55 131.114 10.97C132.014 11.55 132.704 12.33 133.184 13.31C133.684 14.29 133.934 15.41 133.934 16.67C133.934 17.99 133.654 19.19 133.094 20.27C132.554 21.33 131.804 22.13 130.844 22.67C130.544 22.83 130.224 22.97 129.884 23.09C129.544 23.21 129.154 23.31 128.714 23.39C128.274 23.45 127.764 23.5 127.184 23.54C126.624 23.56 125.964 23.57 125.204 23.57H123.884V32H119.774V9.83ZM125.084 19.64C125.604 19.64 126.134 19.62 126.674 19.58C127.234 19.54 127.744 19.43 128.204 19.25C128.664 19.05 129.044 18.76 129.344 18.38C129.644 17.98 129.794 17.44 129.794 16.76C129.794 16.06 129.624 15.46 129.284 14.96C128.944 14.46 128.474 14.13 127.874 13.97C127.534 13.89 127.174 13.84 126.794 13.82C126.414 13.78 125.904 13.76 125.264 13.76H123.884V19.64H125.084Z" fill="#555353"/>
<path d="M30.986 5.74026C27.9464 3.39504 24.1361 2 20 2C10.0589 2 2 10.0589 2 20C2 29.9411 10.0589 38 20 38C29.9411 38 38 29.9411 38 20C38 19.2481 37.9539 18.5069 37.8644 17.7792" stroke="url(#paint0_linear_1106_900)" stroke-width="4"/>
<path d="M30.986 5.74026C27.9464 3.39504 24.1361 2 20 2C10.0589 2 2 10.0589 2 20C2 29.9411 10.0589 38 20 38C29.9411 38 38 29.9411 38 20C38 19.2481 37.9539 18.5069 37.8644 17.7792" stroke="#615F5F" stroke-width="4"/>
<path d="M12.2852 18.1867L19.5895 22.5713L36.2852 10.5713" stroke="#615F5F" stroke-width="4"/>
<defs>
<linearGradient id="paint0_linear_1106_900" x1="24.9091" y1="-18.8052" x2="-4.42857" y2="44.1948" gradientUnits="userSpaceOnUse">
<stop offset="0.339702" stop-color="#A4ABA3"/>
<stop offset="0.827572" stop-color="#F4E91E"/>
</linearGradient>
</defs>
</svg>
