<svg width="113" height="28" viewBox="0 0 113 28" fill="none" xmlns="http://www.w3.org/2000/svg">
<path d="M25.69 22.92L23.14 24.484C19.8987 26.388 16.4533 27.34 12.804 27.34C10.4013 27.34 8.22533 26.7507 6.276 25.572C4.32667 24.3933 2.79667 22.784 1.686 20.744C0.575333 18.704 0.02 16.4487 0.02 13.978C0.02 11.394 0.632 9.10467 1.856 7.11C3.08 5.09267 4.72333 3.52867 6.786 2.418C8.87133 1.30733 11.1493 0.751999 13.62 0.751999C15.4107 0.751999 17.02 1.058 18.448 1.67C19.8987 2.25933 21.3267 3.098 22.732 4.186C22.7547 4.20867 22.8 4.22 22.868 4.22C22.9813 4.22 23.1173 4.17467 23.276 4.084C23.4573 3.97067 23.5933 3.86867 23.684 3.778L24.126 4.254L19.604 8.742L19.128 8.3C19.264 8.164 19.366 8.01667 19.434 7.858C19.5247 7.67667 19.5247 7.54067 19.434 7.45C17.598 5.84067 15.6713 5.036 13.654 5.036C12.0673 5.036 10.594 5.39867 9.234 6.124C7.874 6.84933 6.786 7.892 5.97 9.252C5.17667 10.5893 4.78 12.1647 4.78 13.978C4.78 15.6327 5.12 17.14 5.8 18.5C6.48 19.8373 7.432 20.9027 8.656 21.696C9.88 22.4893 11.274 22.886 12.838 22.886C15.49 22.886 17.802 22.2627 19.774 21.016V16.052H13.62C13.5067 16.052 13.416 16.1313 13.348 16.29C13.28 16.4487 13.246 16.6073 13.246 16.766H12.6V11.326H13.246C13.246 11.4847 13.28 11.6433 13.348 11.802C13.416 11.9607 13.5067 12.04 13.62 12.04H24.908V12.686C24.7493 12.686 24.5793 12.72 24.398 12.788C24.2393 12.856 24.16 12.9467 24.16 13.06V22.512C24.16 22.6253 24.2507 22.682 24.432 22.682C24.704 22.682 25.01 22.58 25.35 22.376L25.69 22.92ZM48.2554 26.116C48.346 26.2747 48.652 26.354 49.1734 26.354V27H42.2714V26.354C42.5887 26.354 42.804 26.2973 42.9174 26.184C43.0307 26.0707 43.042 25.9573 42.9514 25.844L37.2394 16.222H33.7374V25.98C33.7374 26.0933 33.828 26.184 34.0094 26.252C34.1907 26.32 34.3607 26.354 34.5194 26.354V27H28.3994V26.354C28.558 26.354 28.728 26.32 28.9094 26.252C29.0907 26.184 29.1814 26.0933 29.1814 25.98V2.52C29.1814 2.40667 29.0907 2.316 28.9094 2.248C28.7507 2.18 28.592 2.146 28.4334 2.146V1.5H38.8034C41.7954 1.5 44.0507 2.18 45.5694 3.54C47.1107 4.87733 47.8814 6.61133 47.8814 8.742C47.8814 10.714 47.3374 12.3007 46.2494 13.502C45.184 14.7033 43.8014 15.508 42.1014 15.916L48.2554 26.116ZM33.7374 5.444V12.108H39.3134C40.7187 12.108 41.7727 11.7793 42.4754 11.122C43.178 10.4647 43.5294 9.67133 43.5294 8.742C43.5294 7.83533 43.1327 7.06467 42.3394 6.43C41.546 5.77267 40.5714 5.444 39.4154 5.444H33.7374ZM76.804 26.048C76.872 26.252 77.144 26.354 77.62 26.354V27H70.718V26.354C71.0126 26.354 71.2166 26.286 71.33 26.15C71.4433 26.014 71.466 25.878 71.398 25.742L69.528 20.948H58.444L56.574 25.742L56.54 25.844C56.54 25.98 56.5966 26.1047 56.71 26.218C56.846 26.3087 57.016 26.354 57.22 26.354V27H50.522V26.354C50.9753 26.354 51.2473 26.252 51.338 26.048L60.79 3.064C60.858 2.928 60.892 2.80333 60.892 2.69C60.892 2.486 60.8013 2.35 60.62 2.282C60.4386 2.19133 60.246 2.146 60.042 2.146V1.5H67.964V2.146C67.76 2.146 67.5673 2.19133 67.386 2.282C67.2046 2.35 67.114 2.486 67.114 2.69C67.114 2.80333 67.148 2.928 67.216 3.064L76.804 26.048ZM63.986 6.804L59.974 17.038H67.998L63.986 6.804ZM102.997 2.146C102.838 2.146 102.668 2.18 102.487 2.248C102.306 2.316 102.215 2.40667 102.215 2.52V25.98C102.215 26.0933 102.294 26.184 102.453 26.252C102.634 26.32 102.804 26.354 102.963 26.354V27H96.979V26.354C97.523 26.354 97.693 26.2067 97.489 25.912L85.419 9.252V25.98C85.419 26.0933 85.5096 26.184 85.691 26.252C85.8723 26.32 86.0536 26.354 86.235 26.354V27H80.013V26.354C80.1943 26.354 80.3756 26.32 80.557 26.252C80.7383 26.184 80.829 26.0933 80.829 25.98V2.52C80.829 2.40667 80.7383 2.316 80.557 2.248C80.3983 2.18 80.2396 2.146 80.081 2.146V1.5H86.235V2.146C85.691 2.146 85.521 2.29333 85.725 2.588L98.135 19.792L97.693 2.52C97.693 2.40667 97.591 2.316 97.387 2.248C97.2056 2.18 97.0356 2.146 96.877 2.146V1.5H102.997V2.146ZM107.565 2.52C107.565 2.40667 107.475 2.316 107.293 2.248C107.112 2.18 106.931 2.146 106.749 2.146V1.5H113.005V2.146C112.824 2.146 112.643 2.18 112.461 2.248C112.28 2.316 112.189 2.40667 112.189 2.52V25.98C112.189 26.0933 112.28 26.184 112.461 26.252C112.643 26.32 112.824 26.354 113.005 26.354V27H106.749V26.354C106.931 26.354 107.112 26.32 107.293 26.252C107.475 26.184 107.565 26.0933 107.565 25.98V2.52Z" fill="white"/>
</svg>
