<svg width="104" height="23" viewBox="0 0 104 23" fill="none" xmlns="http://www.w3.org/2000/svg">
<path d="M19.9146 7.61328C19.6125 6.94303 19.3151 6.35775 19.0225 5.85742C18.7298 5.34766 18.3475 4.81901 17.8755 4.27148C17.4035 3.72396 16.8984 3.27555 16.3604 2.92627C15.8223 2.57699 15.1615 2.28906 14.3779 2.0625C13.5944 1.83594 12.7306 1.72266 11.7866 1.72266C10.7671 1.72266 9.84196 1.93034 9.01123 2.3457C8.1805 2.76107 7.49609 3.30387 6.95801 3.97412C6.42936 4.64437 5.98096 5.42318 5.61279 6.31055C5.25407 7.18848 4.99919 8.07585 4.84814 8.97266C4.6971 9.86003 4.62158 10.7616 4.62158 11.6772C4.62158 12.5835 4.70182 13.485 4.8623 14.3818C5.02279 15.2692 5.28711 16.1519 5.65527 17.0298C6.03288 17.9077 6.49544 18.6771 7.04297 19.3379C7.59049 19.9987 8.27962 20.5368 9.11035 20.9521C9.95052 21.3581 10.8804 21.561 11.8999 21.561C13.9767 21.561 15.4211 21.0985 16.2329 20.1733V14.4243C16.2329 14.2261 16.1527 14.0514 15.9922 13.9004C15.8317 13.7399 15.6476 13.6172 15.4399 13.5322C15.2323 13.4473 14.9538 13.3717 14.6045 13.3057C14.2646 13.2301 13.9862 13.1782 13.769 13.1499C13.5519 13.1216 13.2782 13.0933 12.9478 13.0649C12.91 12.9139 12.8911 12.8006 12.8911 12.7251C12.8911 12.659 12.91 12.5505 12.9478 12.3994C15.0812 12.4749 16.7238 12.5127 17.8755 12.5127C19.0461 12.5127 20.6886 12.4749 22.8032 12.3994C22.8504 12.5882 22.874 12.6968 22.874 12.7251C22.874 12.7629 22.8504 12.8761 22.8032 13.0649C22.4728 13.0933 22.1991 13.1216 21.9819 13.1499C21.7648 13.1782 21.4816 13.2301 21.1323 13.3057C20.7925 13.3717 20.5187 13.4473 20.311 13.5322C20.1128 13.6172 19.9334 13.7399 19.7729 13.9004C19.6125 14.0514 19.5322 14.2261 19.5322 14.4243V16.52C19.5322 18.3136 19.7446 19.7816 20.1694 20.9238C18.6118 21.4997 17.2288 21.9198 16.0205 22.1841C14.8122 22.4484 13.4386 22.5806 11.8999 22.5806C10.9842 22.5806 10.0638 22.4862 9.13867 22.2974C8.21354 22.1086 7.24121 21.7546 6.22168 21.2354C5.21159 20.7161 4.3195 20.0648 3.54541 19.2812C2.78076 18.4977 2.14355 17.4499 1.63379 16.1377C1.13346 14.8255 0.883301 13.3387 0.883301 11.6772C0.883301 10.4784 1.01074 9.36914 1.26562 8.34961C1.52995 7.32064 1.87923 6.43799 2.31348 5.70166C2.74772 4.96533 3.26221 4.30452 3.85693 3.71924C4.4611 3.13395 5.08887 2.65723 5.74023 2.28906C6.3916 1.9209 7.07601 1.61882 7.79346 1.38281C8.52035 1.13737 9.20947 0.967448 9.86084 0.873047C10.5122 0.769206 11.1541 0.717285 11.7866 0.717285C12.8439 0.717285 13.8493 0.783366 14.8027 0.915527C15.7656 1.03825 16.7238 1.19401 17.6772 1.38281C18.6307 1.56217 19.3859 1.6849 19.9429 1.75098C19.8013 2.17578 19.7305 2.77523 19.7305 3.54932C19.7305 4.83317 19.9618 6.08398 20.4243 7.30176C20.3677 7.47168 20.1978 7.57552 19.9146 7.61328ZM24.7148 1.18457C26.7539 1.26009 28.3965 1.29785 29.6426 1.29785C30.1146 1.29785 30.8745 1.27897 31.9224 1.24121C32.9702 1.20345 33.7773 1.18457 34.3438 1.18457C36.4395 1.18457 38.0868 1.71322 39.2856 2.77051C40.494 3.8278 41.0981 5.20133 41.0981 6.89111C41.0981 8.25049 40.6969 9.46826 39.8945 10.5444C39.0921 11.6112 37.9971 12.3758 36.6094 12.8384C37.2419 13.9712 38.1104 15.255 39.2148 16.6899C40.2816 18.1154 41.2964 19.234 42.2593 20.0459C43.2316 20.8577 44.2747 21.3156 45.3887 21.4194C45.4264 21.5705 45.4453 21.6885 45.4453 21.7734C45.4453 21.8678 45.4264 21.9717 45.3887 22.085C44.8223 22.0566 44.2181 22.0378 43.5762 22.0283C42.9342 22.0189 42.2168 22.0142 41.4238 22.0142C40.6403 22.0142 40.0361 22.0094 39.6113 22C37.0719 19.0452 35.0329 16.1377 33.4941 13.2773C32.805 13.2773 32.012 13.1688 31.1152 12.9517C31.1152 14.783 31.1672 17.1525 31.271 20.0601C31.2804 20.3055 31.389 20.5179 31.5967 20.6973C31.8044 20.8672 32.1017 20.9993 32.4888 21.0938C32.8853 21.1882 33.2157 21.259 33.48 21.3062C33.7537 21.3439 34.1077 21.3817 34.542 21.4194C34.5798 21.6082 34.5986 21.7357 34.5986 21.8018C34.5986 21.8773 34.5798 21.9717 34.542 22.085C32.9372 22.0283 31.2946 22 29.6143 22C27.915 22 26.2725 22.0283 24.6865 22.085C24.6488 21.9717 24.6299 21.8773 24.6299 21.8018C24.6299 21.6413 24.6488 21.5138 24.6865 21.4194C24.9697 21.3911 25.1963 21.3675 25.3662 21.3486C25.5361 21.3298 25.7674 21.2967 26.0601 21.2495C26.3621 21.2023 26.6029 21.1504 26.7822 21.0938C26.971 21.0277 27.1646 20.9474 27.3628 20.853C27.561 20.7586 27.7074 20.6453 27.8018 20.5132C27.9056 20.381 27.9575 20.23 27.9575 20.0601C28.0708 17.1053 28.1274 14.127 28.1274 11.125C28.1274 8.06641 28.0802 5.4279 27.9858 3.20947C27.9764 2.96403 27.8678 2.75635 27.6602 2.58643C27.4525 2.40706 27.1504 2.27018 26.7539 2.17578C26.3669 2.08138 26.0365 2.0153 25.7627 1.97754C25.4984 1.93034 25.1491 1.88786 24.7148 1.8501C24.6771 1.68018 24.6582 1.56217 24.6582 1.49609C24.6582 1.43945 24.6771 1.33561 24.7148 1.18457ZM31.2993 2.16162H31.271C31.1672 5.64502 31.1152 8.88298 31.1152 11.8755C31.776 12.0926 32.4463 12.2012 33.126 12.2012C33.749 12.2012 34.306 12.0973 34.7969 11.8896C35.2972 11.6725 35.7078 11.3893 36.0288 11.04C36.3498 10.6908 36.6141 10.2801 36.8218 9.80811C37.0389 9.3361 37.1899 8.85938 37.2749 8.37793C37.3693 7.89648 37.4165 7.40088 37.4165 6.89111C37.4165 5.48454 37.0295 4.33757 36.2554 3.4502C35.4907 2.55339 34.4004 2.10498 32.9844 2.10498C32.2858 2.10498 31.7241 2.12386 31.2993 2.16162ZM56.7876 0.972168C56.9292 0.868327 57.0802 0.802246 57.2407 0.773926L64.9863 20.1167C65.0807 20.3527 65.2365 20.5557 65.4536 20.7256C65.6707 20.8861 65.9398 21.0135 66.2607 21.1079C66.5911 21.1929 66.8743 21.259 67.1104 21.3062C67.3558 21.3439 67.6532 21.3817 68.0024 21.4194C68.0402 21.5705 68.0591 21.6979 68.0591 21.8018C68.0591 21.915 68.0402 22.0189 68.0024 22.1133C65.9634 22.0378 64.4388 22 63.4287 22C62.3337 22 60.7477 22.0378 58.6709 22.1133C58.6331 22 58.6143 21.8867 58.6143 21.7734C58.6143 21.6507 58.6331 21.5327 58.6709 21.4194C60.5778 21.2118 61.5312 20.853 61.5312 20.3433C61.5312 20.1828 61.5124 20.0176 61.4746 19.8477L59.4214 14.5801C58.7983 14.5612 57.9582 14.5518 56.9009 14.5518C56.4006 14.5518 55.1025 14.5706 53.0068 14.6084L50.8403 20.1167V20.2866C50.8403 20.381 50.8545 20.4707 50.8828 20.5557C50.9206 20.6406 50.9772 20.7161 51.0527 20.7822C51.1377 20.8483 51.2179 20.9049 51.2935 20.9521C51.369 20.9993 51.4728 21.0465 51.605 21.0938C51.7466 21.1315 51.8646 21.1646 51.959 21.1929C52.0628 21.2118 52.1997 21.2354 52.3696 21.2637C52.549 21.292 52.6859 21.3156 52.7803 21.3345C52.8747 21.3439 53.0116 21.3581 53.1909 21.377C53.3797 21.3958 53.5119 21.41 53.5874 21.4194C53.6252 21.5705 53.644 21.6979 53.644 21.8018C53.644 21.8584 53.6252 21.9622 53.5874 22.1133C51.4728 22.0378 50.2834 22 50.019 22C49.5093 22 48.1971 22.0378 46.0825 22.1133C46.0448 22 46.0259 21.8867 46.0259 21.7734C46.0259 21.6507 46.0448 21.5327 46.0825 21.4194C48.0461 21.1929 49.1647 20.7114 49.4385 19.9751L55.5273 4.62549L55.2158 3.79004C55.7539 3.43132 56.1268 3.04427 56.3345 2.62891C56.5516 2.21354 56.7026 1.6613 56.7876 0.972168ZM56.9009 13.4473C57.7694 13.4473 58.4538 13.4378 58.9541 13.4189L56.2637 6.45215H56.207L53.5024 13.3906C54.3898 13.4284 55.5226 13.4473 56.9009 13.4473ZM69.7441 1.18457C71.2923 1.26009 73.2464 1.29785 75.6064 1.29785C82.2806 9.66178 85.8678 14.1175 86.3682 14.665C86.8685 15.2031 87.1187 15.4722 87.1187 15.4722H87.2319C87.2697 13.6597 87.2886 12.2012 87.2886 11.0967C87.2886 8.91602 87.2414 6.35303 87.147 3.40771C87.1281 2.55811 86.0802 2.0389 84.0034 1.8501C83.9657 1.64242 83.9468 1.51497 83.9468 1.46777C83.9468 1.39225 83.9657 1.29785 84.0034 1.18457C85.5233 1.24121 86.8685 1.26953 88.0391 1.26953C88.7943 1.26953 90.0592 1.24121 91.834 1.18457C91.8717 1.29785 91.8906 1.39225 91.8906 1.46777C91.8906 1.61882 91.8717 1.74626 91.834 1.8501C89.7666 2.0389 88.7235 2.55811 88.7046 3.40771C88.5913 6.36247 88.5347 9.27474 88.5347 12.1445C88.5347 16.5342 88.5819 19.8382 88.6763 22.0566L88.4214 22.085L74.3462 4.76709H74.2046C74.1479 7.21208 74.1196 9.68066 74.1196 12.1729C74.1196 14.363 74.1668 16.9212 74.2612 19.8477C74.2801 20.7067 75.3232 21.2306 77.3906 21.4194C77.4378 21.5799 77.4614 21.7074 77.4614 21.8018C77.4614 21.8962 77.4378 21.9906 77.3906 22.085C75.8896 22.0283 74.5492 22 73.3691 22C72.6139 22 71.349 22.0283 69.5742 22.085C69.527 21.9906 69.5034 21.8962 69.5034 21.8018C69.5034 21.6413 69.527 21.5138 69.5742 21.4194C71.6605 21.2212 72.7036 20.6973 72.7036 19.8477C72.8169 16.9023 72.8735 13.9948 72.8735 11.125C72.8735 8.00977 72.8358 5.30518 72.7603 3.01123C71.9673 2.3221 70.9619 1.93506 69.7441 1.8501C69.6875 1.72738 69.6592 1.61882 69.6592 1.52441C69.6592 1.38281 69.6875 1.26953 69.7441 1.18457ZM93.873 1.18457C95.9876 1.26009 97.6302 1.29785 98.8008 1.29785C99.9714 1.29785 101.614 1.26009 103.729 1.18457C103.766 1.33561 103.785 1.43945 103.785 1.49609C103.785 1.59993 103.766 1.71794 103.729 1.8501C103.294 1.88786 102.94 1.93034 102.667 1.97754C102.402 2.0153 102.072 2.08138 101.675 2.17578C101.288 2.27018 100.991 2.40706 100.783 2.58643C100.576 2.75635 100.467 2.96403 100.458 3.20947C100.335 6.41911 100.273 9.4069 100.273 12.1729C100.273 14.193 100.325 16.8221 100.429 20.0601C100.439 20.3055 100.547 20.5179 100.755 20.6973C100.963 20.8672 101.26 20.9993 101.647 21.0938C102.043 21.1882 102.374 21.259 102.638 21.3062C102.912 21.3439 103.266 21.3817 103.7 21.4194C103.738 21.5327 103.757 21.6602 103.757 21.8018C103.757 21.8773 103.738 21.9717 103.7 22.085C102.095 22.0283 100.453 22 98.7725 22C97.0732 22 95.4307 22.0283 93.8447 22.085C93.807 21.9717 93.7881 21.8773 93.7881 21.8018C93.7881 21.6413 93.807 21.5138 93.8447 21.4194C94.1279 21.3911 94.3545 21.3675 94.5244 21.3486C94.6943 21.3298 94.9256 21.2967 95.2183 21.2495C95.5203 21.2023 95.7611 21.1504 95.9404 21.0938C96.1292 21.0277 96.3228 20.9474 96.521 20.853C96.7192 20.7586 96.8656 20.6453 96.96 20.5132C97.0638 20.381 97.1157 20.23 97.1157 20.0601C97.229 17.1053 97.2856 14.127 97.2856 11.125C97.2856 8.06641 97.2384 5.4279 97.144 3.20947C97.1346 2.96403 97.026 2.75635 96.8184 2.58643C96.6107 2.40706 96.3086 2.27018 95.9121 2.17578C95.5251 2.08138 95.1947 2.0153 94.9209 1.97754C94.6566 1.93034 94.3073 1.88786 93.873 1.8501C93.8353 1.68018 93.8164 1.56217 93.8164 1.49609C93.8164 1.40169 93.8353 1.29785 93.873 1.18457Z" fill="white"/>
</svg>
