<svg width="25" height="29" viewBox="0 0 25 29" fill="none" xmlns="http://www.w3.org/2000/svg">
<path d="M8.38948 10.8511L9.20853 9.87924C9.31136 9.75722 9.36776 9.60278 9.36776 9.44321C9.36776 9.31944 9.33381 9.19803 9.2696 9.09222L8.07234 7.11917L7.82335 6.85428C7.56613 6.59995 7.16599 6.56042 6.86398 6.7595L6.32022 7.11794C6.14732 7.23191 5.9987 7.37899 5.88293 7.5507L5.70924 7.80832C5.36154 8.32401 5.17578 8.9318 5.17578 9.55376V9.85258C5.17578 10.6026 5.38153 11.3383 5.77063 11.9795L6.03702 12.4185C6.34366 12.9239 6.72406 13.3806 7.16563 13.7735L10.0437 16.3347C10.6177 16.8455 11.2818 17.2446 12.0022 17.5118L12.107 17.5506C12.4859 17.6911 12.8798 17.7871 13.2808 17.8366L13.8764 17.9103C14.249 17.9563 14.6272 17.9193 14.9838 17.8017C15.4923 17.6341 15.9349 17.3102 16.2484 16.8762L16.6826 16.2752C16.8039 16.1072 16.8692 15.9053 16.8692 15.6981C16.8692 15.3541 16.6898 15.0351 16.396 14.8563L14.343 13.607C14.126 13.475 13.862 13.4447 13.6208 13.5242C13.4382 13.5844 13.2808 13.7036 13.1733 13.863L13.0124 14.1017C12.9368 14.2138 12.8397 14.3099 12.7268 14.3843L12.5721 14.4863C12.3639 14.6235 12.0986 14.6399 11.875 14.5294C11.8217 14.5031 11.7719 14.47 11.7269 14.4311L8.44803 11.5942C8.33155 11.4935 8.26461 11.347 8.26461 11.193C8.26461 11.0679 8.30884 10.9468 8.38948 10.8511Z" fill="black"/>
<path d="M18.5425 11.2563C18.5425 7.69318 15.5504 4.80469 11.8594 4.80469" stroke="black" stroke-width="0.7"/>
<path d="M15.2009 11.2561C15.2009 9.47452 13.7049 8.03027 11.8594 8.03027" stroke="black" stroke-width="0.7"/>
<path d="M16.8717 11.2567C16.8717 8.58434 14.6276 6.41797 11.8594 6.41797" stroke="black" stroke-width="0.7"/>
<path d="M10.4188 21.6784H14.3308C19.3882 21.6784 23.4527 17.5124 23.328 12.4565L23.2763 10.3572C23.1558 5.47457 19.1631 1.5791 14.279 1.5791H10.2391C5.17615 1.5791 1.10948 5.75381 1.24221 10.815L1.37726 15.9647C1.44596 18.5842 3.37009 20.7836 5.95725 21.1998V21.1998" stroke="black" stroke-width="2"/>
<path d="M5.17578 20.9336V26.5788L11.4412 21.3368" stroke="black" stroke-width="2"/>
</svg>
