<svg width="37" height="11" viewBox="0 0 37 11" fill="none" xmlns="http://www.w3.org/2000/svg">
<path d="M0.858 10V0.887H2.626L5.577 8.037L8.502 0.887H10.27V10H8.853V3.435L6.11 10H5.031L2.275 3.422V10H0.858ZM15.2938 0.782999C16.9578 0.782999 18.2838 1.706 18.6738 3.006L17.3868 3.435C17.0618 2.434 16.2948 1.979 15.3848 1.979C14.5918 1.979 13.7078 2.278 13.7078 3.214C13.7078 4.033 14.4228 4.332 15.7358 4.709C17.1658 5.138 18.8558 5.658 18.8558 7.504C18.8558 9.077 17.4648 10.13 15.6058 10.13C13.7078 10.13 12.2908 9.025 11.8618 7.413L13.1228 6.971C13.5128 8.245 14.3968 8.934 15.5928 8.934C16.6458 8.934 17.4128 8.375 17.4128 7.504C17.4128 6.529 16.4638 6.23 15.1768 5.853C13.6688 5.411 12.2778 4.891 12.2778 3.292C12.2778 1.784 13.5258 0.782999 15.2938 0.782999ZM20.4403 10V0.887H23.8593C26.8623 0.887 28.2143 3.188 28.2143 5.437C28.2143 7.699 26.8623 10 23.8593 10H20.4403ZM21.8573 2.044V8.83H23.7813C25.8613 8.83 26.7713 7.192 26.7713 5.437C26.7713 3.682 25.8613 2.044 23.7813 2.044H21.8573ZM32.8575 0.782999C34.5215 0.782999 35.8475 1.706 36.2375 3.006L34.9505 3.435C34.6255 2.434 33.8585 1.979 32.9485 1.979C32.1555 1.979 31.2715 2.278 31.2715 3.214C31.2715 4.033 31.9865 4.332 33.2995 4.709C34.7295 5.138 36.4195 5.658 36.4195 7.504C36.4195 9.077 35.0285 10.13 33.1695 10.13C31.2715 10.13 29.8545 9.025 29.4255 7.413L30.6865 6.971C31.0765 8.245 31.9605 8.934 33.1565 8.934C34.2095 8.934 34.9765 8.375 34.9765 7.504C34.9765 6.529 34.0275 6.23 32.7405 5.853C31.2325 5.411 29.8415 4.891 29.8415 3.292C29.8415 1.784 31.0895 0.782999 32.8575 0.782999Z" fill="black"/>
</svg>
