<svg width="130" height="40" viewBox="0 0 130 40" fill="none" xmlns="http://www.w3.org/2000/svg">
<path d="M76.98 22.82C76.54 23.84 75.97 24.76 75.27 25.58C74.59 26.38 73.81 27.07 72.93 27.65C72.05 28.21 71.08 28.64 70.02 28.94C68.98 29.24 67.89 29.39 66.75 29.39C65.13 29.39 63.61 29.09 62.19 28.49C60.77 27.89 59.53 27.07 58.47 26.03C57.43 24.99 56.6 23.77 55.98 22.37C55.38 20.95 55.08 19.44 55.08 17.84C55.08 16.28 55.38 14.81 55.98 13.43C56.58 12.03 57.39 10.82 58.41 9.8C59.45 8.76 60.66 7.94 62.04 7.34C63.44 6.74 64.92 6.44 66.48 6.44C68.84 6.44 70.94 7.03 72.78 8.21C74.62 9.39 76.02 11.05 76.98 13.19H72.39C71.63 12.21 70.79 11.5 69.87 11.06C68.97 10.62 67.87 10.4 66.57 10.4C65.53 10.4 64.56 10.59 63.66 10.97C62.76 11.35 61.98 11.88 61.32 12.56C60.66 13.22 60.14 14.01 59.76 14.93C59.4 15.83 59.22 16.81 59.22 17.87C59.22 18.91 59.41 19.89 59.79 20.81C60.19 21.73 60.73 22.53 61.41 23.21C62.09 23.89 62.88 24.43 63.78 24.83C64.68 25.23 65.64 25.43 66.66 25.43C67.72 25.43 68.67 25.23 69.51 24.83C70.35 24.43 71.23 23.76 72.15 22.82H76.98ZM86.0927 25.07C86.6327 25.07 87.1927 25.05 87.7727 25.01C88.3727 24.97 88.9127 24.85 89.3927 24.65C89.8927 24.45 90.3027 24.15 90.6227 23.75C90.9427 23.33 91.1027 22.75 91.1027 22.01C91.1027 21.31 90.9227 20.77 90.5627 20.39C90.2227 19.99 89.7927 19.7 89.2727 19.52C88.7527 19.32 88.1927 19.2 87.5927 19.16C86.9927 19.1 86.4327 19.07 85.9127 19.07H84.5927V25.07H86.0927ZM80.4827 6.83H93.8327V10.76H84.5927V15.14H85.9727C86.7927 15.14 87.5027 15.16 88.1027 15.2C88.7227 15.22 89.2627 15.27 89.7227 15.35C90.1827 15.41 90.5927 15.5 90.9527 15.62C91.3127 15.72 91.6527 15.86 91.9727 16.04C92.9927 16.58 93.7927 17.39 94.3727 18.47C94.9527 19.55 95.2427 20.76 95.2427 22.1C95.2427 23.36 94.9827 24.49 94.4627 25.49C93.9627 26.49 93.2327 27.28 92.2727 27.86C91.9327 28.06 91.5627 28.24 91.1627 28.4C90.7827 28.54 90.3427 28.66 89.8427 28.76C89.3627 28.84 88.8127 28.9 88.1927 28.94C87.5727 28.98 86.8527 29 86.0327 29H80.4827V6.83ZM98.7417 6.83H114.462V29H110.352V10.76H102.852V29H98.7417V6.83Z" fill="#555353"/>
<path d="M38.2961 27.9815L0 9.03711L0.709187 10.1853L5.6735 17.6482L26.9491 27.9815H38.2961Z" fill="#555353"/>
<path d="M0 30.8519V9.03711L5.6735 17.6482V22.2408L0 30.8519Z" fill="#555353"/>
<path d="M0 30.8517L5.6735 22.2406L10.6378 19.9443L15.6021 22.2406L0 30.8517Z" fill="#555353"/>
<path d="M15.6035 37.7412V22.2412L21.277 25.1116V29.7042L15.6035 37.7412Z" fill="#555353"/>
<path d="M15.6035 37.7407L21.277 29.7037L26.9505 27.9814H38.2975L15.6035 37.7407Z" fill="#555353"/>
<path d="M15.6035 17.074V1L21.277 9.03702V19.9444L15.6035 17.074Z" fill="#555353"/>
<path d="M26.2413 11.9074H37.5883L15.745 1.07022L21.277 9.03702L26.2413 11.9074Z" fill="#555353"/>
<path d="M21.2758 13.6293L26.2402 11.907L37.5871 11.907L21.2759 19.9441L21.2758 13.6293Z" fill="#555353"/>
</svg>
