<svg width="103" height="61" viewBox="0 0 103 61" fill="none" xmlns="http://www.w3.org/2000/svg">
<path d="M0.396 52.5123C0.396 51.9183 0.506 51.3646 0.726 50.8513C0.946 50.338 1.24667 49.8943 1.628 49.5203C2.01667 49.139 2.47133 48.842 2.992 48.6293C3.52 48.4093 4.08833 48.2993 4.697 48.2993C5.27633 48.2993 5.819 48.4093 6.325 48.6293C6.831 48.8493 7.271 49.15 7.645 49.5313C8.02633 49.9126 8.32333 50.36 8.536 50.8733C8.756 51.3793 8.866 51.922 8.866 52.5013C8.866 53.0953 8.756 53.649 8.536 54.1623C8.32333 54.6756 8.03 55.123 7.656 55.5043C7.282 55.8783 6.83833 56.1753 6.325 56.3953C5.819 56.608 5.269 56.7143 4.675 56.7143C4.081 56.7143 3.52367 56.608 3.003 56.3953C2.48233 56.1753 2.02767 55.8783 1.639 55.5043C1.25767 55.123 0.953333 54.6756 0.726 54.1623C0.506 53.649 0.396 53.099 0.396 52.5123ZM1.914 52.5013C1.914 52.89 1.98367 53.253 2.123 53.5903C2.26967 53.9276 2.464 54.221 2.706 54.4703C2.95533 54.7123 3.24867 54.9066 3.586 55.0533C3.92333 55.1926 4.28267 55.2623 4.664 55.2623C5.05267 55.2623 5.40833 55.1926 5.731 55.0533C6.061 54.914 6.34333 54.7233 6.578 54.4813C6.82 54.2393 7.007 53.9533 7.139 53.6233C7.27833 53.286 7.348 52.9193 7.348 52.5233C7.348 52.1273 7.27833 51.7606 7.139 51.4233C6.99967 51.0786 6.809 50.7853 6.567 50.5433C6.325 50.294 6.03533 50.0996 5.698 49.9603C5.36067 49.821 4.994 49.7513 4.598 49.7513C4.224 49.7513 3.872 49.8246 3.542 49.9713C3.21933 50.1106 2.937 50.305 2.695 50.5543C2.453 50.8036 2.26233 51.097 2.123 51.4343C1.98367 51.7643 1.914 52.12 1.914 52.5013ZM9.96377 50.4773H15.5738V56.5713H14.1108V51.8083H11.4268V56.5713H9.96377V50.4773ZM18.8536 50.4773H19.9976L22.5386 56.5713H20.9766L19.4256 52.5233L17.8746 56.5713H16.3126L18.8536 50.4773ZM22.9925 53.5463C22.9925 53.0843 23.0695 52.659 23.2235 52.2703C23.3775 51.8743 23.5902 51.5333 23.8615 51.2473C24.1402 50.9613 24.4702 50.7376 24.8515 50.5763C25.2328 50.415 25.6472 50.3343 26.0945 50.3343C26.5345 50.3343 26.9122 50.4113 27.2275 50.5653C27.5428 50.712 27.8288 50.954 28.0855 51.2913V50.4773H29.4275V56.5713H28.0855V55.7793C27.7922 56.1166 27.4878 56.3586 27.1725 56.5053C26.8645 56.6446 26.4942 56.7143 26.0615 56.7143C25.6142 56.7143 25.2035 56.6373 24.8295 56.4833C24.4555 56.322 24.1328 56.102 23.8615 55.8233C23.5902 55.5373 23.3775 55.2036 23.2235 54.8223C23.0695 54.4336 22.9925 54.0083 22.9925 53.5463ZM24.4665 53.5793C24.4665 53.8433 24.5105 54.0853 24.5985 54.3053C24.6865 54.5253 24.8075 54.716 24.9615 54.8773C25.1228 55.0313 25.3135 55.1523 25.5335 55.2403C25.7608 55.3283 26.0065 55.3723 26.2705 55.3723C26.5345 55.3723 26.7728 55.3283 26.9855 55.2403C27.2055 55.1523 27.3925 55.0276 27.5465 54.8663C27.7078 54.705 27.8288 54.5143 27.9095 54.2943C27.9975 54.067 28.0415 53.8176 28.0415 53.5463C28.0415 53.2676 27.9975 53.0146 27.9095 52.7873C27.8215 52.56 27.6968 52.3656 27.5355 52.2043C27.3742 52.0356 27.1798 51.9073 26.9525 51.8193C26.7325 51.724 26.4905 51.6763 26.2265 51.6763C25.9698 51.6763 25.7315 51.724 25.5115 51.8193C25.2988 51.9146 25.1155 52.0466 24.9615 52.2153C24.8075 52.384 24.6865 52.5856 24.5985 52.8203C24.5105 53.0476 24.4665 53.3006 24.4665 53.5793ZM31.7484 51.8083H30.3294V50.4773H34.6304V51.8083H33.2114V56.5713H31.7484V51.8083ZM35.2437 53.5463C35.2437 53.0843 35.3207 52.659 35.4747 52.2703C35.6287 51.8743 35.8414 51.5333 36.1127 51.2473C36.3914 50.9613 36.7214 50.7376 37.1027 50.5763C37.4841 50.415 37.8984 50.3343 38.3457 50.3343C38.7857 50.3343 39.1634 50.4113 39.4787 50.5653C39.7941 50.712 40.0801 50.954 40.3367 51.2913V50.4773H41.6787V56.5713H40.3367V55.7793C40.0434 56.1166 39.7391 56.3586 39.4237 56.5053C39.1157 56.6446 38.7454 56.7143 38.3127 56.7143C37.8654 56.7143 37.4547 56.6373 37.0807 56.4833C36.7067 56.322 36.3841 56.102 36.1127 55.8233C35.8414 55.5373 35.6287 55.2036 35.4747 54.8223C35.3207 54.4336 35.2437 54.0083 35.2437 53.5463ZM36.7177 53.5793C36.7177 53.8433 36.7617 54.0853 36.8497 54.3053C36.9377 54.5253 37.0587 54.716 37.2127 54.8773C37.3741 55.0313 37.5647 55.1523 37.7847 55.2403C38.0121 55.3283 38.2577 55.3723 38.5217 55.3723C38.7857 55.3723 39.0241 55.3283 39.2367 55.2403C39.4567 55.1523 39.6437 55.0276 39.7977 54.8663C39.9591 54.705 40.0801 54.5143 40.1607 54.2943C40.2487 54.067 40.2927 53.8176 40.2927 53.5463C40.2927 53.2676 40.2487 53.0146 40.1607 52.7873C40.0727 52.56 39.9481 52.3656 39.7867 52.2043C39.6254 52.0356 39.4311 51.9073 39.2037 51.8193C38.9837 51.724 38.7417 51.6763 38.4777 51.6763C38.2211 51.6763 37.9827 51.724 37.7627 51.8193C37.5501 51.9146 37.3667 52.0466 37.2127 52.2153C37.0587 52.384 36.9377 52.5856 36.8497 52.8203C36.7617 53.0476 36.7177 53.3006 36.7177 53.5793ZM46.1697 50.4773H47.6327V53.2823L49.7447 50.4773H51.5157L49.0847 53.5023L51.6477 56.5713H49.7447L47.6327 53.7663V56.5713H46.1697V50.4773ZM52.0845 53.5463C52.0845 53.0843 52.1615 52.659 52.3155 52.2703C52.4695 51.8743 52.6822 51.5333 52.9535 51.2473C53.2322 50.9613 53.5622 50.7376 53.9435 50.5763C54.3248 50.415 54.7392 50.3343 55.1865 50.3343C55.6265 50.3343 56.0042 50.4113 56.3195 50.5653C56.6348 50.712 56.9208 50.954 57.1775 51.2913V50.4773H58.5195V56.5713H57.1775V55.7793C56.8842 56.1166 56.5798 56.3586 56.2645 56.5053C55.9565 56.6446 55.5862 56.7143 55.1535 56.7143C54.7062 56.7143 54.2955 56.6373 53.9215 56.4833C53.5475 56.322 53.2248 56.102 52.9535 55.8233C52.6822 55.5373 52.4695 55.2036 52.3155 54.8223C52.1615 54.4336 52.0845 54.0083 52.0845 53.5463ZM53.5585 53.5793C53.5585 53.8433 53.6025 54.0853 53.6905 54.3053C53.7785 54.5253 53.8995 54.716 54.0535 54.8773C54.2148 55.0313 54.4055 55.1523 54.6255 55.2403C54.8528 55.3283 55.0985 55.3723 55.3625 55.3723C55.6265 55.3723 55.8648 55.3283 56.0775 55.2403C56.2975 55.1523 56.4845 55.0276 56.6385 54.8663C56.7998 54.705 56.9208 54.5143 57.0015 54.2943C57.0895 54.067 57.1335 53.8176 57.1335 53.5463C57.1335 53.2676 57.0895 53.0146 57.0015 52.7873C56.9135 52.56 56.7888 52.3656 56.6275 52.2043C56.4662 52.0356 56.2718 51.9073 56.0445 51.8193C55.8245 51.724 55.5825 51.6763 55.3185 51.6763C55.0618 51.6763 54.8235 51.724 54.6035 51.8193C54.3908 51.9146 54.2075 52.0466 54.0535 52.2153C53.8995 52.384 53.7785 52.5856 53.6905 52.8203C53.6025 53.0476 53.5585 53.3006 53.5585 53.5793ZM59.8174 50.4773H61.1594V51.1923C61.3941 50.9136 61.6801 50.701 62.0174 50.5543C62.3621 50.4076 62.7434 50.3343 63.1614 50.3343C63.6014 50.3343 64.0047 50.415 64.3714 50.5763C64.7454 50.7303 65.0681 50.9503 65.3394 51.2363C65.6107 51.515 65.8197 51.8486 65.9664 52.2373C66.1204 52.6186 66.1974 53.0403 66.1974 53.5023C66.1974 53.9643 66.1204 54.3933 65.9664 54.7893C65.8124 55.178 65.5997 55.5153 65.3284 55.8013C65.0644 56.0873 64.7454 56.311 64.3714 56.4723C63.9974 56.6336 63.5904 56.7143 63.1504 56.7143C62.7764 56.7143 62.4427 56.6593 62.1494 56.5493C61.8561 56.432 61.5664 56.2486 61.2804 55.9993V58.6063H59.8174V50.4773ZM62.9854 55.3723C63.2274 55.3723 63.4547 55.3246 63.6674 55.2293C63.8801 55.134 64.0634 55.0056 64.2174 54.8443C64.3787 54.6756 64.5034 54.4813 64.5914 54.2613C64.6794 54.034 64.7234 53.792 64.7234 53.5353C64.7234 53.264 64.6794 53.0146 64.5914 52.7873C64.5034 52.56 64.3787 52.3656 64.2174 52.2043C64.0561 52.0356 63.8654 51.9073 63.6454 51.8193C63.4327 51.724 63.1981 51.6763 62.9414 51.6763C62.6921 51.6763 62.4611 51.724 62.2484 51.8193C62.0357 51.9146 61.8487 52.0466 61.6874 52.2153C61.5334 52.3766 61.4124 52.5746 61.3244 52.8093C61.2364 53.0366 61.1924 53.2823 61.1924 53.5463C61.1924 53.803 61.2364 54.045 61.3244 54.2723C61.4197 54.4923 61.5481 54.6866 61.7094 54.8553C61.8707 55.0166 62.0614 55.145 62.2814 55.2403C62.5014 55.3283 62.7361 55.3723 62.9854 55.3723ZM68.2336 51.8083H66.8146V50.4773H71.1156V51.8083H69.6966V56.5713H68.2336V51.8083ZM71.7289 53.5353C71.7289 53.088 71.8133 52.67 71.9819 52.2813C72.1506 51.8926 72.3816 51.5553 72.6749 51.2693C72.9683 50.976 73.3129 50.7486 73.7089 50.5873C74.1123 50.4186 74.5413 50.3343 74.9959 50.3343C75.4359 50.3343 75.8503 50.4186 76.2389 50.5873C76.6349 50.756 76.9759 50.987 77.2619 51.2803C77.5553 51.5663 77.7863 51.9036 77.9549 52.2923C78.1236 52.681 78.2079 53.0953 78.2079 53.5353C78.2079 53.9753 78.1236 54.3896 77.9549 54.7783C77.7863 55.1596 77.5553 55.4933 77.2619 55.7793C76.9686 56.0653 76.6239 56.2926 76.2279 56.4613C75.8393 56.63 75.4213 56.7143 74.9739 56.7143C74.5266 56.7143 74.1049 56.63 73.7089 56.4613C73.3129 56.2926 72.9683 56.0653 72.6749 55.7793C72.3816 55.4933 72.1506 55.1596 71.9819 54.7783C71.8133 54.3896 71.7289 53.9753 71.7289 53.5353ZM74.9629 55.3723C75.2049 55.3723 75.4323 55.3246 75.6449 55.2293C75.8649 55.134 76.0556 55.002 76.2169 54.8333C76.3783 54.6646 76.5029 54.4703 76.5909 54.2503C76.6863 54.023 76.7339 53.7846 76.7339 53.5353C76.7339 53.2713 76.6863 53.0293 76.5909 52.8093C76.5029 52.582 76.3783 52.384 76.2169 52.2153C76.0556 52.0466 75.8649 51.9146 75.6449 51.8193C75.4249 51.724 75.1903 51.6763 74.9409 51.6763C74.7063 51.6763 74.4826 51.7276 74.2699 51.8303C74.0573 51.9256 73.8703 52.0576 73.7089 52.2263C73.5549 52.3876 73.4303 52.582 73.3349 52.8093C73.2469 53.0293 73.2029 53.2676 73.2029 53.5243C73.2029 53.781 73.2469 54.023 73.3349 54.2503C73.4303 54.4703 73.5586 54.6646 73.7199 54.8333C73.8813 55.002 74.0683 55.134 74.2809 55.2293C74.4936 55.3246 74.7209 55.3723 74.9629 55.3723ZM81.3488 48.3653C81.3488 48.644 81.4038 48.8456 81.5138 48.9703C81.6238 49.0876 81.8034 49.1463 82.0528 49.1463C82.3021 49.1463 82.4818 49.0876 82.5918 48.9703C82.7018 48.8456 82.7568 48.644 82.7568 48.3653H83.8678C83.7138 49.3186 83.1088 49.7953 82.0528 49.7953C80.9968 49.7953 80.3918 49.3186 80.2378 48.3653H81.3488ZM79.2148 50.4773H80.6668V54.5033L83.3948 50.4773H84.8798V56.5713H83.4278V52.5453L80.6998 56.5713H79.2148V50.4773Z" fill="#615F5F"/>
<rect x="12.5" y="1.5" width="61" height="33.5714" rx="3.5" stroke="#615F5F" stroke-width="3"/>
<path d="M11 9.14258C55.3733 9.14258 72.1556 9.14258 75 9.14258" stroke="#615F5F" stroke-width="3"/>
<path d="M13.2852 18.2861C24.3785 18.2861 28.574 18.2861 29.2852 18.2861" stroke="#615F5F" stroke-width="3"/>
</svg>
