<svg width="70" height="22" viewBox="0 0 70 22" fill="none" xmlns="http://www.w3.org/2000/svg">
<path d="M9.76 22L4.6 5.2H4.48C4.5 5.6 4.53 6.2 4.57 7C4.61 7.8 4.65 8.66 4.69 9.58C4.73 10.48 4.75 11.3 4.75 12.04V22H0.7V0.579999H6.88L11.95 16.96H12.04L17.41 0.579999H23.59V22H19.36V11.86C19.36 11.18 19.37 10.4 19.39 9.52C19.43 8.64 19.46 7.81 19.48 7.03C19.52 6.23 19.55 5.63 19.57 5.23H19.45L13.93 22H9.76ZM29.3008 0.579999H33.3808V10.93C33.3808 11.43 33.3708 11.99 33.3508 12.61C33.3308 13.23 33.3108 13.84 33.2908 14.44C33.2708 15.02 33.2508 15.53 33.2308 15.97C33.2108 16.39 33.1908 16.68 33.1708 16.84H33.2608L43.1608 0.579999H48.5908V22H44.5408V11.71C44.5408 11.17 44.5508 10.58 44.5708 9.94C44.5908 9.28 44.6108 8.65 44.6308 8.05C44.6708 7.45 44.7008 6.93 44.7208 6.49C44.7608 6.03 44.7908 5.73 44.8108 5.59H44.6908L34.7608 22H29.3008V0.579999ZM61.138 0.579999C63.898 0.579999 65.908 1.18 67.168 2.38C68.448 3.56 69.088 5.19 69.088 7.27C69.088 8.21 68.948 9.11 68.668 9.97C68.388 10.81 67.918 11.57 67.258 12.25C66.618 12.91 65.768 13.43 64.708 13.81C63.648 14.19 62.338 14.38 60.778 14.38H58.828V22H54.298V0.579999H61.138ZM60.898 4.3H58.828V10.66H60.328C61.188 10.66 61.928 10.55 62.548 10.33C63.168 10.11 63.648 9.76 63.988 9.28C64.328 8.8 64.498 8.18 64.498 7.42C64.498 6.36 64.208 5.58 63.628 5.08C63.048 4.56 62.138 4.3 60.898 4.3Z" fill="#555353"/>
</svg>
