<svg width="27" height="29" viewBox="0 0 27 29" fill="none" xmlns="http://www.w3.org/2000/svg">
<path d="M12.66 16.14H11.26C11.26 15.7267 11.3 15.3467 11.38 15C11.46 14.6533 11.58 14.32 11.74 14C11.9 13.68 12.1133 13.3667 12.38 13.06C12.6467 12.74 12.9667 12.4067 13.34 12.06C13.6733 11.7533 13.9467 11.4867 14.16 11.26C14.3733 11.02 14.54 10.7933 14.66 10.58C14.7933 10.3667 14.8867 10.16 14.94 9.96C14.9933 9.74667 15.02 9.51333 15.02 9.26C15.02 8.83333 14.94 8.44 14.78 8.08C14.6333 7.72 14.4267 7.40667 14.16 7.14C13.8933 6.87333 13.5733 6.66667 13.2 6.52C12.8267 6.37333 12.42 6.3 11.98 6.3C10.98 6.3 10.2067 6.59333 9.66 7.18C9.12667 7.76667 8.80667 8.65333 8.7 9.84H7.3C7.32667 9.08 7.44667 8.4 7.66 7.8C7.88667 7.18667 8.2 6.67333 8.6 6.26C9.01333 5.83333 9.5 5.51333 10.06 5.3C10.6333 5.07333 11.2733 4.96 11.98 4.96C12.6333 4.96 13.2333 5.06667 13.78 5.28C14.34 5.49333 14.82 5.79333 15.22 6.18C15.62 6.56667 15.9333 7.02667 16.16 7.56C16.3867 8.09333 16.5 8.67333 16.5 9.3C16.5 9.62 16.4667 9.92667 16.4 10.22C16.3333 10.5 16.2267 10.7733 16.08 11.04C15.9467 11.3067 15.7667 11.5733 15.54 11.84C15.3133 12.1067 15.0333 12.3933 14.7 12.7C14.3267 13.0467 14.0067 13.3667 13.74 13.66C13.4867 13.94 13.28 14.2133 13.12 14.48C12.96 14.7467 12.84 15.0133 12.76 15.28C12.6933 15.5467 12.66 15.8333 12.66 16.14ZM11.22 20V17.48H12.7V20H11.22Z" fill="#0761E8"/>
<circle cx="13.2391" cy="13.2391" r="12.7391" stroke="#0761E8"/>
</svg>
