<svg width="17" height="24" viewBox="0 0 17 24" fill="none" xmlns="http://www.w3.org/2000/svg">
<path d="M1.1875 10.0534C1.1875 9.83861 1.18797 9.76311 1.19309 9.70394C1.25599 8.97773 1.83186 8.40187 2.55807 8.33897C2.61724 8.33384 2.69274 8.33337 2.9075 8.33337H14.139C14.3537 8.33337 14.4292 8.33384 14.4884 8.33897C15.2146 8.40187 15.7905 8.97773 15.8534 9.70394C15.8585 9.76311 15.859 9.83867 15.859 10.0536V10.0656V10.0777V10.0897V10.1017V10.1137V10.1257V10.1378V10.1498V10.1618V10.1737V10.1857V10.1977V10.2097V10.2216V10.2336V10.2455V10.2575V10.2694V10.2814V10.2933V10.3052V10.3171V10.329V10.3409V10.3528V10.3647V10.3766V10.3885V10.4004V10.4122V10.4241V10.4359V10.4478V10.4596V10.4715V10.4833V10.4951V10.5069V10.5188V10.5306V10.5424V10.5542V10.5659V10.5777V10.5895V10.6013V10.613V10.6248V10.6366V10.6483V10.6601V10.6718V10.6835V10.6952V10.707V10.7187V10.7304V10.7421V10.7538V10.7655V10.7772V10.7889V10.8005V10.8122V10.8239V10.8355V10.8472V10.8588V10.8705V10.8821V10.8937V10.9054V10.917V10.9286V10.9402V10.9518V10.9634V10.975V10.9866V10.9982V11.0097V11.0213V11.0329V11.0444V11.056V11.0675V11.0791V11.0906V11.1022V11.1137V11.1252V11.1367V11.1483V11.1598V11.1713V11.1828V11.1943V11.2057V11.2172V11.2287V11.2402V11.2516V11.2631V11.2746V11.286V11.2975V11.3089V11.3203V11.3318V11.3432V11.3546V11.366V11.3774V11.3889V11.4003V11.4116V11.423V11.4344V11.4458V11.4572V11.4686V11.4799V11.4913V11.5026V11.514V11.5253V11.5367V11.548V11.5594V11.5707V11.582V11.5933V11.6047V11.616V11.6273V11.6386V11.6499V11.6612V11.6724V11.6837V11.695V11.7063V11.7175V11.7288V11.7401V11.7513V11.7626V11.7738V11.7851V11.7963V11.8075V11.8188V11.83V11.8412V11.8524V11.8636V11.8748V11.886V11.8972V11.9084V11.9196V11.9308V11.942V11.9531V11.9643V11.9755V11.9866V11.9978V12.009V12.0201V12.0312V12.0424V12.0535V12.0647V12.0758V12.0869V12.098V12.1091V12.1203V12.1314V12.1425V12.1536V12.1647V12.1757V12.1868V12.1979V12.209V12.2201V12.2311V12.2422V12.2533V12.2643V12.2754V12.2864V12.2975V12.3085V12.3196V12.3306V12.3416V12.3527V12.3637V12.3747V12.3857V12.3967V12.4077V12.4187V12.4297V12.4407V12.4517V12.4627V12.4737V12.4847V12.4957V12.5066V12.5176V12.5286V12.5395V12.5505V12.5614V12.5724V12.5833V12.5943V12.6052V12.6162V12.6271V12.638V12.649V12.6599V12.6708V12.6817V12.6926V12.7035V12.7144V12.7253V12.7362V12.7471V12.758V12.7689V12.7798V12.7907V12.8016V12.8124V12.8233V12.8342V12.845V12.8559V12.8668V12.8776V12.8885V12.8993V12.9102V12.921V12.9318V12.9427V12.9535V12.9643V12.9752V12.986V12.9968V13.0076V13.0184V13.0292V13.0401V13.0509V13.0617V13.0725V13.0833V13.094V13.1048V13.1156V13.1264V13.1372V13.148V13.1587V13.1695V13.1803V13.191V13.2018V13.2126V13.2233V13.2341V13.2448V13.2556V13.2663V13.2771V13.2878V13.2985V13.3093V13.32V13.3307V13.3414V13.3522V13.3629V13.3736V13.3843V13.395V13.4057V13.4164V13.4271V13.4378V13.4485V13.4592V13.4699V13.4806V13.4913V13.502V13.5127V13.5234V13.534V13.5447V13.5554V13.5661V13.5767V13.5874V13.5981V13.6087V13.6194V13.63V13.6407V13.6513V13.662V13.6726V13.6833V13.6939V13.7045V13.7152V13.7258V13.7365V13.7471V13.7577V13.7683V13.779V13.7896V13.8002V13.8108V13.8214V13.832V13.8426V13.8533V13.8639V13.8745V13.8851V13.8957V13.9063V13.9169V13.9274V13.938V13.9486V13.9592V13.9698V13.9804V13.991V14.0015V14.0121V14.0227V14.0333V14.0438V14.0544V14.065V14.0755V14.0861V14.0967V14.1072V14.1178V14.1283V14.1389V14.1494V14.16V14.1705V14.1811V14.1916V14.2022V14.2127V14.2232V14.2338V14.2443V14.2549V14.2654V14.2759V14.2864V14.297V14.3075V14.318V14.3285V14.3391V14.3496V14.3601V14.3706V14.3811V14.3917V14.4022V14.4127V14.4232V14.4337V14.4442V14.4547V14.4652V14.4757V14.4862V14.4967V14.5072V14.5177V14.5282V14.5387V14.5492V14.5597V14.5702V14.5807V14.5911V14.6016V14.6121V14.6226V14.6331V14.6436V14.654V14.6645V14.675V14.6855V14.6959V14.7064V14.7169V14.7274V14.7378V14.7483V14.7588V14.7692V14.7797V14.7902V14.8006V14.8111V14.8216V14.832V14.8425V14.8529V14.8634V14.8738V14.8843V14.8948V14.9052V14.9157V14.9261V14.9366V14.947V14.9575V14.9679V14.9784V14.9888V14.9993V15.0097V15.0201V15.0306V15.041V15.0515V15.0619V15.0724V15.0828V15.0932V15.1037V15.1141V15.1246V15.135V15.1454V15.1559V15.1663V15.1767V15.1872V15.1976V15.208V15.2185V15.2289V15.2393V15.2498V15.2602V15.2706V15.281V15.2915V15.3019V15.3123V15.3228V15.3332V15.3436V15.354V15.3645V15.3749V15.3853V15.3957V15.4062V15.4166V15.427V15.4374V15.4479V15.4583V15.4687V15.4791V15.4896V15.5V15.5104V15.5208V15.5312V15.5417V15.5521V15.5625V15.5729V15.5833V15.5938V15.6042V15.6146V15.625V15.6354V15.6459V15.6563V15.6667V15.6732V15.6797V15.6862V15.6927V15.6992V15.7057V15.7122V15.7187V15.7252V15.7317V15.7382V15.7447V15.7512V15.7577V15.7641V15.7706V15.7771V15.7836V15.7901V15.7966V15.8031V15.8096V15.8161V15.8226V15.8291V15.8356V15.8421V15.8486V15.8551V15.8616V15.8681V15.8746V15.8811V15.8876V15.8941V15.9006V15.9071V15.9136V15.9201V15.9266V15.9331V15.9396V15.9461V15.9526V15.9591V15.9656V15.9721V15.9786V15.9851V15.9916V15.9981V16.0046V16.0111V16.0176V16.0241V16.0306V16.0371V16.0436V16.0501V16.0566V16.0631V16.0696V16.0761V16.0826V16.0891V16.0956V16.1021V16.1086V16.1151V16.1216V16.1281V16.1346V16.1411V16.1476V16.1541V16.1606V16.1671V16.1736V16.1801V16.1866V16.1931V16.1996V16.2062V16.2127V16.2192V16.2257V16.2322V16.2387V16.2452V16.2517V16.2582V16.2647V16.2712V16.2777V16.2842V16.2908V16.2973V16.3038V16.3103V16.3168V16.3233V16.3298V16.3363V16.3428V16.3494V16.3559V16.3624V16.3689V16.3754V16.3819V16.3884V16.395V16.4015V16.408V16.4145V16.421V16.4275V16.434V16.4406V16.4471V16.4536V16.4601V16.4666V16.4732V16.4797V16.4862V16.4927V16.4992V16.5058V16.5123V16.5188V16.5253V16.5318V16.5384V16.5449V16.5514V16.5579V16.5645V16.571V16.5775V16.584V16.5906V16.5971V16.6036V16.6101V16.6167V16.6232V16.6297V16.6363V16.6428V16.6493V16.6558V16.6624V16.6689V16.6754V16.682V16.6885V16.695V16.7016V16.7081V16.7146V16.7212V16.7277V16.7343V16.7408V16.7473V16.7539V16.7604V16.7669V16.7735V16.78V16.7866V16.7931V16.7996V16.8062V16.8127V16.8193V16.8258V16.8324V16.8389V16.8454V16.852V16.8585V16.8651V16.8716V16.8782V16.8847V16.8913V16.8978V16.9044V16.9109V16.9175V16.924V16.9306V16.9371V16.9437V16.9502V16.9568V16.9633V16.9699V16.9765V16.983V16.9896V16.9961V17.0027V17.0093V17.0158V17.0224V17.0289V17.0355V17.0421V17.0486V17.0552V17.0617V17.0683V17.0749V17.0814V17.088V17.0946V17.1011V17.1077V17.1143V17.1209V17.1274V17.134V17.1406V17.1471V17.1537V17.1603V17.1669V17.1734V17.18V17.1866V17.1932V17.1998V17.2063V17.2129V17.2195V17.2261V17.2327V17.2392V17.2458V17.2524V17.259V17.2656V17.2722V17.2788V17.2853V17.2919V17.2985V17.3051V17.3117V17.3183V17.3249V17.3315V17.3381V17.3447V17.3513V17.3579V17.3645V17.3711V17.3777V17.3843V17.3909V17.3975V17.4041V17.4107V17.4173V17.4239V17.4305V17.4371V17.4437V17.4503V17.4569V17.4635V17.4701V17.4767V17.4833V17.49V17.4966V17.5032V17.5098V17.5164V17.523V17.5297V17.5363V17.5429V17.5495V17.5561V17.5628V17.5694V17.576V17.5826V17.5893V17.5959V17.6025V17.6091V17.6158V17.6224V17.629V17.6357V17.6423V17.6489V17.6556V17.6622V17.6688V17.6755V17.6821V17.6887V17.6954V17.702V17.7087V17.7153V17.722V17.7286V17.7352V17.7419V17.7485V17.7552V17.7618V17.7685V17.7751V17.7818V17.7884V17.7951V17.8018V17.8084V17.8151V17.8217V17.8284V17.835V17.8417V17.8484V17.855V17.8617V17.8684V17.875V17.8817V17.8884V17.895V17.9017V17.9084V17.915V17.9217V17.9284V17.9351V17.9417V17.9484V17.9551V17.9618V17.9685V17.9751V17.9818V17.9885V17.9952V18.0019V18.0086V18.0153V18.0219V18.0286V18.0353V18.042V18.0487V18.0554V18.0621V18.0688V18.0755V18.0822V18.0889V18.0956V18.1023V18.109V18.1157V18.1224V18.1291V18.1358V18.1425V18.1493V18.156V18.1627V18.1694V18.1761V18.1828V18.1895V18.1963V18.203V18.2097V18.2164V18.2231V18.2299V18.2366V18.2433V18.25V18.2568V18.2635V18.2702V18.277V18.2837V18.2904V18.2972V18.3039V18.3106V18.3174V18.3241V18.3309V18.3376V18.3444V18.3511V18.3579V18.3646V18.3713V18.3781V18.3849V18.3916V18.3984V18.4051V18.4119V18.4186V18.4254V18.4322V18.4389V18.4457V18.4524V18.4592V18.466V18.4727V18.4795V18.4863V18.4931V18.4998V18.5066V18.5134V18.5202V18.5269V18.5337V18.5405V18.5473V18.5541V18.5608V18.5676V18.5744V18.5812V18.588V18.5948V18.6016V18.6084V18.6152V18.622V18.6288V18.6356V18.6424V18.6492V18.656V18.6628V18.6696V18.6764V18.6832V18.69V18.6968V18.7036V18.7105V18.7173V18.7241V18.7309V18.7377V18.7446V18.7514V18.7582V18.765V18.7719V18.7787V18.7855V18.7924V18.7992V18.806V18.8129V18.8197V18.8265V18.8334V18.8402V18.8471V18.8539V18.8607V18.8676V18.8744V18.8813V18.8881V18.895V18.9019V18.9087V18.9156V18.9224V18.9293V18.9362V18.943V18.9499V18.9567V18.9636V18.9705V18.9774V18.9842V18.9911V18.998V19.0049V19.0117V19.0186V19.0255V19.0324V19.0393V19.0462V19.053V19.0599C15.859 19.4791 15.8585 19.6568 15.8459 19.802C15.6992 21.4965 14.3555 22.8402 12.661 22.987C12.5157 22.9996 12.338 23 11.919 23H5.1275C4.70844 23 4.53079 22.9996 4.3855 22.987C2.69101 22.8402 1.34731 21.4965 1.20055 19.802C1.18797 19.6568 1.1875 19.4791 1.1875 19.06V15.6667V10.0534Z" stroke="#272222"/>
<path d="M1.1875 10.0534C1.1875 9.83861 1.18797 9.76311 1.19309 9.70394C1.25599 8.97773 1.83186 8.40187 2.55807 8.33897C2.61724 8.33384 2.69274 8.33337 2.9075 8.33337H14.139C14.3537 8.33337 14.4292 8.33384 14.4884 8.33897C15.2146 8.40187 15.7905 8.97773 15.8534 9.70394C15.8585 9.76311 15.859 9.83867 15.859 10.0536V10.0656V10.0777V10.0897V10.1017V10.1137V10.1257V10.1378V10.1498V10.1618V10.1737V10.1857V10.1977V10.2097V10.2216V10.2336V10.2455V10.2575V10.2694V10.2814V10.2933V10.3052V10.3171V10.329V10.3409V10.3528V10.3647V10.3766V10.3885V10.4004V10.4122V10.4241V10.4359V10.4478V10.4596V10.4715V10.4833V10.4951V10.5069V10.5188V10.5306V10.5424V10.5542V10.5659V10.5777V10.5895V10.6013V10.613V10.6248V10.6366V10.6483V10.6601V10.6718V10.6835V10.6952V10.707V10.7187V10.7304V10.7421V10.7538V10.7655V10.7772V10.7889V10.8005V10.8122V10.8239V10.8355V10.8472V10.8588V10.8705V10.8821V10.8937V10.9054V10.917V10.9286V10.9402V10.9518V10.9634V10.975V10.9866V10.9982V11.0097V11.0213V11.0329V11.0444V11.056V11.0675V11.0791V11.0906V11.1022V11.1137V11.1252V11.1367V11.1483V11.1598V11.1713V11.1828V11.1943V11.2057V11.2172V11.2287V11.2402V11.2516V11.2631V11.2746V11.286V11.2975V11.3089V11.3203V11.3318V11.3432V11.3546V11.366V11.3774V11.3889V11.4003V11.4116V11.423V11.4344V11.4458V11.4572V11.4686V11.4799V11.4913V11.5026V11.514V11.5253V11.5367V11.548V11.5594V11.5707V11.582V11.5933V11.6047V11.616V11.6273V11.6386V11.6499V11.6612V11.6724V11.6837V11.695V11.7063V11.7175V11.7288V11.7401V11.7513V11.7626V11.7738V11.7851V11.7963V11.8075V11.8188V11.83V11.8412V11.8524V11.8636V11.8748V11.886V11.8972V11.9084V11.9196V11.9308V11.942V11.9531V11.9643V11.9755V11.9866V11.9978V12.009V12.0201V12.0312V12.0424V12.0535V12.0647V12.0758V12.0869V12.098V12.1091V12.1203V12.1314V12.1425V12.1536V12.1647V12.1757V12.1868V12.1979V12.209V12.2201V12.2311V12.2422V12.2533V12.2643V12.2754V12.2864V12.2975V12.3085V12.3196V12.3306V12.3416V12.3527V12.3637V12.3747V12.3857V12.3967V12.4077V12.4187V12.4297V12.4407V12.4517V12.4627V12.4737V12.4847V12.4957V12.5066V12.5176V12.5286V12.5395V12.5505V12.5614V12.5724V12.5833V12.5943V12.6052V12.6162V12.6271V12.638V12.649V12.6599V12.6708V12.6817V12.6926V12.7035V12.7144V12.7253V12.7362V12.7471V12.758V12.7689V12.7798V12.7907V12.8016V12.8124V12.8233V12.8342V12.845V12.8559V12.8668V12.8776V12.8885V12.8993V12.9102V12.921V12.9318V12.9427V12.9535V12.9643V12.9752V12.986V12.9968V13.0076V13.0184V13.0292V13.0401V13.0509V13.0617V13.0725V13.0833V13.094V13.1048V13.1156V13.1264V13.1372V13.148V13.1587V13.1695V13.1803V13.191V13.2018V13.2126V13.2233V13.2341V13.2448V13.2556V13.2663V13.2771V13.2878V13.2985V13.3093V13.32V13.3307V13.3414V13.3522V13.3629V13.3736V13.3843V13.395V13.4057V13.4164V13.4271V13.4378V13.4485V13.4592V13.4699V13.4806V13.4913V13.502V13.5127V13.5234V13.534V13.5447V13.5554V13.5661V13.5767V13.5874V13.5981V13.6087V13.6194V13.63V13.6407V13.6513V13.662V13.6726V13.6833V13.6939V13.7045V13.7152V13.7258V13.7365V13.7471V13.7577V13.7683V13.779V13.7896V13.8002V13.8108V13.8214V13.832V13.8426V13.8533V13.8639V13.8745V13.8851V13.8957V13.9063V13.9169V13.9274V13.938V13.9486V13.9592V13.9698V13.9804V13.991V14.0015V14.0121V14.0227V14.0333V14.0438V14.0544V14.065V14.0755V14.0861V14.0967V14.1072V14.1178V14.1283V14.1389V14.1494V14.16V14.1705V14.1811V14.1916V14.2022V14.2127V14.2232V14.2338V14.2443V14.2549V14.2654V14.2759V14.2864V14.297V14.3075V14.318V14.3285V14.3391V14.3496V14.3601V14.3706V14.3811V14.3917V14.4022V14.4127V14.4232V14.4337V14.4442V14.4547V14.4652V14.4757V14.4862V14.4967V14.5072V14.5177V14.5282V14.5387V14.5492V14.5597V14.5702V14.5807V14.5911V14.6016V14.6121V14.6226V14.6331V14.6436V14.654V14.6645V14.675V14.6855V14.6959V14.7064V14.7169V14.7274V14.7378V14.7483V14.7588V14.7692V14.7797V14.7902V14.8006V14.8111V14.8216V14.832V14.8425V14.8529V14.8634V14.8738V14.8843V14.8948V14.9052V14.9157V14.9261V14.9366V14.947V14.9575V14.9679V14.9784V14.9888V14.9993V15.0097V15.0201V15.0306V15.041V15.0515V15.0619V15.0724V15.0828V15.0932V15.1037V15.1141V15.1246V15.135V15.1454V15.1559V15.1663V15.1767V15.1872V15.1976V15.208V15.2185V15.2289V15.2393V15.2498V15.2602V15.2706V15.281V15.2915V15.3019V15.3123V15.3228V15.3332V15.3436V15.354V15.3645V15.3749V15.3853V15.3957V15.4062V15.4166V15.427V15.4374V15.4479V15.4583V15.4687V15.4791V15.4896V15.5V15.5104V15.5208V15.5312V15.5417V15.5521V15.5625V15.5729V15.5833V15.5938V15.6042V15.6146V15.625V15.6354V15.6459V15.6563V15.6667V15.6732V15.6797V15.6862V15.6927V15.6992V15.7057V15.7122V15.7187V15.7252V15.7317V15.7382V15.7447V15.7512V15.7577V15.7641V15.7706V15.7771V15.7836V15.7901V15.7966V15.8031V15.8096V15.8161V15.8226V15.8291V15.8356V15.8421V15.8486V15.8551V15.8616V15.8681V15.8746V15.8811V15.8876V15.8941V15.9006V15.9071V15.9136V15.9201V15.9266V15.9331V15.9396V15.9461V15.9526V15.9591V15.9656V15.9721V15.9786V15.9851V15.9916V15.9981V16.0046V16.0111V16.0176V16.0241V16.0306V16.0371V16.0436V16.0501V16.0566V16.0631V16.0696V16.0761V16.0826V16.0891V16.0956V16.1021V16.1086V16.1151V16.1216V16.1281V16.1346V16.1411V16.1476V16.1541V16.1606V16.1671V16.1736V16.1801V16.1866V16.1931V16.1996V16.2062V16.2127V16.2192V16.2257V16.2322V16.2387V16.2452V16.2517V16.2582V16.2647V16.2712V16.2777V16.2842V16.2908V16.2973V16.3038V16.3103V16.3168V16.3233V16.3298V16.3363V16.3428V16.3494V16.3559V16.3624V16.3689V16.3754V16.3819V16.3884V16.395V16.4015V16.408V16.4145V16.421V16.4275V16.434V16.4406V16.4471V16.4536V16.4601V16.4666V16.4732V16.4797V16.4862V16.4927V16.4992V16.5058V16.5123V16.5188V16.5253V16.5318V16.5384V16.5449V16.5514V16.5579V16.5645V16.571V16.5775V16.584V16.5906V16.5971V16.6036V16.6101V16.6167V16.6232V16.6297V16.6363V16.6428V16.6493V16.6558V16.6624V16.6689V16.6754V16.682V16.6885V16.695V16.7016V16.7081V16.7146V16.7212V16.7277V16.7343V16.7408V16.7473V16.7539V16.7604V16.7669V16.7735V16.78V16.7866V16.7931V16.7996V16.8062V16.8127V16.8193V16.8258V16.8324V16.8389V16.8454V16.852V16.8585V16.8651V16.8716V16.8782V16.8847V16.8913V16.8978V16.9044V16.9109V16.9175V16.924V16.9306V16.9371V16.9437V16.9502V16.9568V16.9633V16.9699V16.9765V16.983V16.9896V16.9961V17.0027V17.0093V17.0158V17.0224V17.0289V17.0355V17.0421V17.0486V17.0552V17.0617V17.0683V17.0749V17.0814V17.088V17.0946V17.1011V17.1077V17.1143V17.1209V17.1274V17.134V17.1406V17.1471V17.1537V17.1603V17.1669V17.1734V17.18V17.1866V17.1932V17.1998V17.2063V17.2129V17.2195V17.2261V17.2327V17.2392V17.2458V17.2524V17.259V17.2656V17.2722V17.2788V17.2853V17.2919V17.2985V17.3051V17.3117V17.3183V17.3249V17.3315V17.3381V17.3447V17.3513V17.3579V17.3645V17.3711V17.3777V17.3843V17.3909V17.3975V17.4041V17.4107V17.4173V17.4239V17.4305V17.4371V17.4437V17.4503V17.4569V17.4635V17.4701V17.4767V17.4833V17.49V17.4966V17.5032V17.5098V17.5164V17.523V17.5297V17.5363V17.5429V17.5495V17.5561V17.5628V17.5694V17.576V17.5826V17.5893V17.5959V17.6025V17.6091V17.6158V17.6224V17.629V17.6357V17.6423V17.6489V17.6556V17.6622V17.6688V17.6755V17.6821V17.6887V17.6954V17.702V17.7087V17.7153V17.722V17.7286V17.7352V17.7419V17.7485V17.7552V17.7618V17.7685V17.7751V17.7818V17.7884V17.7951V17.8018V17.8084V17.8151V17.8217V17.8284V17.835V17.8417V17.8484V17.855V17.8617V17.8684V17.875V17.8817V17.8884V17.895V17.9017V17.9084V17.915V17.9217V17.9284V17.9351V17.9417V17.9484V17.9551V17.9618V17.9685V17.9751V17.9818V17.9885V17.9952V18.0019V18.0086V18.0153V18.0219V18.0286V18.0353V18.042V18.0487V18.0554V18.0621V18.0688V18.0755V18.0822V18.0889V18.0956V18.1023V18.109V18.1157V18.1224V18.1291V18.1358V18.1425V18.1493V18.156V18.1627V18.1694V18.1761V18.1828V18.1895V18.1963V18.203V18.2097V18.2164V18.2231V18.2299V18.2366V18.2433V18.25V18.2568V18.2635V18.2702V18.277V18.2837V18.2904V18.2972V18.3039V18.3106V18.3174V18.3241V18.3309V18.3376V18.3444V18.3511V18.3579V18.3646V18.3713V18.3781V18.3849V18.3916V18.3984V18.4051V18.4119V18.4186V18.4254V18.4322V18.4389V18.4457V18.4524V18.4592V18.466V18.4727V18.4795V18.4863V18.4931V18.4998V18.5066V18.5134V18.5202V18.5269V18.5337V18.5405V18.5473V18.5541V18.5608V18.5676V18.5744V18.5812V18.588V18.5948V18.6016V18.6084V18.6152V18.622V18.6288V18.6356V18.6424V18.6492V18.656V18.6628V18.6696V18.6764V18.6832V18.69V18.6968V18.7036V18.7105V18.7173V18.7241V18.7309V18.7377V18.7446V18.7514V18.7582V18.765V18.7719V18.7787V18.7855V18.7924V18.7992V18.806V18.8129V18.8197V18.8265V18.8334V18.8402V18.8471V18.8539V18.8607V18.8676V18.8744V18.8813V18.8881V18.895V18.9019V18.9087V18.9156V18.9224V18.9293V18.9362V18.943V18.9499V18.9567V18.9636V18.9705V18.9774V18.9842V18.9911V18.998V19.0049V19.0117V19.0186V19.0255V19.0324V19.0393V19.0462V19.053V19.0599C15.859 19.4791 15.8585 19.6568 15.8459 19.802C15.6992 21.4965 14.3555 22.8402 12.661 22.987C12.5157 22.9996 12.338 23 11.919 23H5.1275C4.70844 23 4.53079 22.9996 4.3855 22.987C2.69101 22.8402 1.34731 21.4965 1.20055 19.802C1.18797 19.6568 1.1875 19.4791 1.1875 19.06V15.6667V10.0534Z" stroke="black"/>
<path d="M12.9019 8.7037L12.876 5.45344C12.8629 3.82172 11.9356 2.34197 10.475 1.62222V1.62222C8.77498 0.784476 6.71866 1.15118 5.39771 2.52766L5.34112 2.58663C4.538 3.42351 4.08913 4.53668 4.08913 5.69148L4.08913 8.7037" stroke="black"/>
<path d="M12.9019 8.7037L12.876 5.45344C12.8629 3.82172 11.9356 2.34197 10.475 1.62222V1.62222C8.77498 0.784476 6.71866 1.15118 5.39771 2.52766L5.34112 2.58663C4.538 3.42351 4.08913 4.53668 4.08913 5.69148L4.08913 8.7037" stroke="black"/>
</svg>
