<svg width="35" height="37" viewBox="0 0 35 37" fill="none" xmlns="http://www.w3.org/2000/svg">
<path d="M18.8295 36.6705C15.9318 36.6705 13.3703 36.2727 11.1449 35.4773C8.91951 34.6913 7.04924 33.5313 5.53409 31.9972C4.01894 30.4631 2.87311 28.5833 2.09659 26.358C1.32008 24.1326 0.931818 21.5852 0.931818 18.7159C0.931818 15.9413 1.32481 13.4602 2.1108 11.2727C2.90625 9.08523 4.05682 7.22917 5.5625 5.70455C7.07765 4.17045 8.91477 3.00095 11.0739 2.19602C13.2424 1.3911 15.6951 0.988635 18.4318 0.988635C21.0928 0.988635 23.4223 1.42424 25.4205 2.29545C27.428 3.1572 29.1042 4.3267 30.4489 5.80398C31.803 7.27178 32.8163 8.92424 33.4886 10.7614C34.1705 12.5985 34.5114 14.4924 34.5114 16.4432C34.5114 17.8163 34.4451 19.2083 34.3125 20.6193C34.1799 22.0303 33.9006 23.3277 33.4744 24.5114C33.0483 25.6856 32.3902 26.6326 31.5 27.3523C30.6193 28.072 29.4261 28.4318 27.9205 28.4318C27.2576 28.4318 26.5284 28.3277 25.733 28.1193C24.9375 27.911 24.232 27.5653 23.6165 27.0824C23.0009 26.5994 22.6364 25.9508 22.5227 25.1364H22.3523C22.125 25.6856 21.7746 26.2064 21.3011 26.6989C20.8371 27.1913 20.2263 27.5843 19.4688 27.8778C18.7206 28.1714 17.8068 28.2992 16.7273 28.2614C15.4962 28.214 14.4119 27.9394 13.4744 27.4375C12.5369 26.9261 11.7509 26.2348 11.1165 25.3636C10.4915 24.483 10.018 23.465 9.69602 22.3097C9.38352 21.1449 9.22727 19.8902 9.22727 18.5455C9.22727 17.267 9.41667 16.0975 9.79545 15.0369C10.1742 13.9763 10.6998 13.0483 11.3722 12.2528C12.054 11.4574 12.8494 10.8229 13.7585 10.3494C14.6771 9.86648 15.6667 9.56818 16.7273 9.45455C17.6742 9.35985 18.536 9.40246 19.3125 9.58239C20.089 9.75284 20.7282 10.0133 21.2301 10.3636C21.732 10.7045 22.0492 11.0833 22.1818 11.5H22.3523V9.90909H25.3636V22.75C25.3636 23.5455 25.5862 24.2462 26.0312 24.8523C26.4763 25.4583 27.125 25.7614 27.9773 25.7614C28.9432 25.7614 29.6818 25.4299 30.1932 24.767C30.714 24.1042 31.0691 23.0814 31.2585 21.6989C31.4574 20.3163 31.5568 18.5455 31.5568 16.3864C31.5568 15.1174 31.3816 13.8674 31.0312 12.6364C30.6903 11.3958 30.1695 10.2358 29.4688 9.15625C28.7775 8.0767 27.9015 7.125 26.8409 6.30114C25.7803 5.47727 24.535 4.83333 23.1051 4.36932C21.6847 3.89583 20.0701 3.65909 18.2614 3.65909C16.036 3.65909 14.0426 4.00473 12.2812 4.69602C10.5294 5.37784 9.03788 6.37689 7.80682 7.69318C6.58523 9 5.65246 10.5909 5.00852 12.4659C4.37405 14.3314 4.05682 16.4527 4.05682 18.8295C4.05682 21.2443 4.37405 23.3892 5.00852 25.2642C5.65246 27.1392 6.59943 28.7206 7.84943 30.0085C9.1089 31.2964 10.6667 32.2718 12.5227 32.9347C14.3788 33.607 16.5189 33.9432 18.9432 33.9432C19.9848 33.9432 21.0123 33.8438 22.0256 33.6449C23.0388 33.446 23.9337 33.2282 24.7102 32.9915C25.4867 32.7547 26.0455 32.5795 26.3864 32.4659L27.1818 35.0795C26.5947 35.3258 25.8277 35.572 24.8807 35.8182C23.9432 36.0644 22.9394 36.268 21.8693 36.429C20.8087 36.59 19.7955 36.6705 18.8295 36.6705ZM17.1818 25.3636C18.4508 25.3636 19.4782 25.108 20.2642 24.5966C21.0502 24.0852 21.6231 23.3134 21.983 22.2812C22.3428 21.2491 22.5227 19.947 22.5227 18.375C22.5227 16.7841 22.3239 15.5436 21.9261 14.6534C21.5284 13.7633 20.9413 13.1383 20.1648 12.7784C19.3883 12.4186 18.4318 12.2386 17.2955 12.2386C16.2159 12.2386 15.2926 12.5227 14.5256 13.0909C13.768 13.6496 13.1856 14.3977 12.7784 15.3352C12.3807 16.2633 12.1818 17.2765 12.1818 18.375C12.1818 19.5871 12.3428 20.7282 12.6648 21.7983C12.9867 22.8589 13.5123 23.7206 14.2415 24.3835C14.9706 25.0369 15.9508 25.3636 17.1818 25.3636Z" fill="white"/>
</svg>
