<svg width="24" height="26" viewBox="0 0 24 26" fill="none" xmlns="http://www.w3.org/2000/svg">
<path d="M12.8807 25.3693C10.8523 25.3693 9.05919 25.0909 7.50142 24.5341C5.94366 23.9839 4.63447 23.1719 3.57386 22.098C2.51326 21.0241 1.71117 19.7083 1.16761 18.1506C0.624053 16.5928 0.352273 14.8097 0.352273 12.8011C0.352273 10.8589 0.627368 9.12216 1.17756 7.59091C1.73438 6.05966 2.53977 4.76042 3.59375 3.69318C4.65436 2.61932 5.94034 1.80066 7.4517 1.23722C8.9697 0.673768 10.6866 0.392045 12.6023 0.392045C14.465 0.392045 16.0956 0.696969 17.4943 1.30682C18.8996 1.91004 20.0729 2.72869 21.0142 3.76278C21.9621 4.79025 22.6714 5.94697 23.142 7.23295C23.6193 8.51894 23.858 9.8447 23.858 11.2102C23.858 12.1714 23.8116 13.1458 23.7188 14.1335C23.6259 15.1212 23.4304 16.0294 23.1321 16.858C22.8338 17.6799 22.3731 18.3428 21.75 18.8466C21.1335 19.3504 20.2983 19.6023 19.2443 19.6023C18.7803 19.6023 18.2699 19.5294 17.7131 19.3835C17.1562 19.2377 16.6624 18.9957 16.2315 18.6577C15.8007 18.3196 15.5455 17.8655 15.4659 17.2955H15.3466C15.1875 17.6799 14.9422 18.0445 14.6108 18.3892C14.286 18.7339 13.8584 19.009 13.3281 19.2145C12.8045 19.42 12.1648 19.5095 11.4091 19.483C10.5473 19.4498 9.78835 19.2576 9.1321 18.9062C8.47585 18.5483 7.92566 18.0644 7.48153 17.4545C7.04403 16.8381 6.71259 16.1255 6.48722 15.3168C6.26847 14.5014 6.15909 13.6231 6.15909 12.6818C6.15909 11.7869 6.29167 10.9683 6.55682 10.2259C6.82197 9.48343 7.18987 8.83381 7.66051 8.27699C8.13778 7.72017 8.6946 7.27604 9.33097 6.9446C9.97396 6.60653 10.6667 6.39773 11.4091 6.31818C12.072 6.25189 12.6752 6.28172 13.2188 6.40767C13.7623 6.52699 14.2098 6.70928 14.5611 6.95455C14.9124 7.19318 15.1345 7.45833 15.2273 7.75H15.3466V6.63636H17.4545V15.625C17.4545 16.1818 17.6103 16.6723 17.9219 17.0966C18.2334 17.5208 18.6875 17.733 19.2841 17.733C19.9602 17.733 20.4773 17.5009 20.8352 17.0369C21.1998 16.5729 21.4484 15.857 21.581 14.8892C21.7202 13.9214 21.7898 12.6818 21.7898 11.1705C21.7898 10.2822 21.6671 9.4072 21.4219 8.54545C21.1832 7.67708 20.8187 6.86506 20.3281 6.10938C19.8442 5.35369 19.2311 4.6875 18.4886 4.11079C17.7462 3.53409 16.8745 3.08333 15.8736 2.75852C14.8793 2.42708 13.7491 2.26136 12.483 2.26136C10.9252 2.26136 9.52983 2.50331 8.29688 2.98722C7.07055 3.46449 6.02652 4.16383 5.16477 5.08523C4.30966 6 3.65672 7.11364 3.20597 8.42614C2.76184 9.73201 2.53977 11.2169 2.53977 12.8807C2.53977 14.571 2.76184 16.0724 3.20597 17.3849C3.65672 18.6974 4.3196 19.8045 5.1946 20.706C6.07623 21.6075 7.16667 22.2902 8.46591 22.7543C9.76515 23.2249 11.2633 23.4602 12.9602 23.4602C13.6894 23.4602 14.4086 23.3906 15.1179 23.2514C15.8272 23.1122 16.4536 22.9598 16.9972 22.794C17.5407 22.6283 17.9318 22.5057 18.1705 22.4261L18.7273 24.2557C18.3163 24.428 17.7794 24.6004 17.1165 24.7727C16.4602 24.9451 15.7576 25.0876 15.0085 25.2003C14.2661 25.313 13.5568 25.3693 12.8807 25.3693ZM11.7273 17.4545C12.6155 17.4545 13.3348 17.2756 13.8849 16.9176C14.4351 16.5597 14.8362 16.0194 15.0881 15.2969C15.34 14.5743 15.4659 13.6629 15.4659 12.5625C15.4659 11.4489 15.3267 10.5805 15.0483 9.95739C14.7699 9.33428 14.3589 8.89678 13.8153 8.64489C13.2718 8.39299 12.6023 8.26705 11.8068 8.26705C11.0511 8.26705 10.4048 8.46591 9.8679 8.86364C9.3376 9.25473 8.92992 9.77841 8.64489 10.4347C8.36648 11.0843 8.22727 11.7936 8.22727 12.5625C8.22727 13.411 8.33996 14.2098 8.56534 14.9588C8.79072 15.7012 9.15862 16.3045 9.66903 16.7685C10.1795 17.2259 10.8655 17.4545 11.7273 17.4545Z" fill="black"/>
</svg>
