<svg width="22" height="20" viewBox="0 0 22 20" fill="none" xmlns="http://www.w3.org/2000/svg">
<path d="M5.90566 2.01887L5.95417 2.09163M5.95417 2.09163L8.00558 5.16875C8.11267 5.32938 8.16981 5.51811 8.16981 5.71116V5.71116C8.16981 5.95749 8.07684 6.19475 7.90947 6.3755L6.48917 7.90943C6.35664 8.05256 6.28302 8.24044 6.28302 8.43551V8.43551C6.28302 8.67281 6.39184 8.89701 6.57827 9.04383L12.1971 13.4687C12.2792 13.5333 12.3689 13.5877 12.4643 13.6306V13.6306C12.8472 13.8029 13.2902 13.7768 13.6502 13.5608L13.8954 13.4137C14.1015 13.2901 14.2812 13.127 14.4242 12.9339L14.652 12.6265C14.8534 12.3545 15.1374 12.155 15.4616 12.0577V12.0577C15.8662 11.9364 16.3027 11.9833 16.6722 12.188L20.2533 14.1714C20.7141 14.4266 21 14.9117 21 15.4385V15.4385C21 15.7654 20.8894 16.0828 20.6861 16.3389L20.0031 17.1995C19.4238 17.9294 18.6347 18.4643 17.7421 18.7321V18.7321C17.1529 18.9089 16.5339 18.9645 15.9225 18.8958L14.868 18.7771C14.1781 18.6995 13.4985 18.5484 12.8407 18.3264L12.702 18.2796C11.4515 17.8576 10.2863 17.2162 9.26073 16.3855L4.32496 12.3876C3.6218 11.818 3.00885 11.1453 2.5069 10.3924L1.99151 9.61934C1.345 8.64957 1 7.51012 1 6.3446V5.97828C1 4.95083 1.33012 3.95057 1.94168 3.12496L2.17613 2.80844C2.39618 2.51139 2.67259 2.2606 2.98959 2.0704L3.90292 1.5224C4.42034 1.21195 5.07979 1.27558 5.5283 1.67925V1.67925L5.95417 2.09163Z" stroke="white"/>
</svg>
