<svg width="31" height="37" viewBox="0 0 31 37" fill="none" xmlns="http://www.w3.org/2000/svg">
<path d="M31 26.9816L0 8.03711L0.574074 9.18526L4.59259 16.6482L21.8148 26.9816H31Z" fill="#1487C9"/>
<path d="M0 29.8519V8.03711L4.59259 16.6482V21.2408L0 29.8519Z" fill="#5B57A2"/>
<path d="M0 29.8527L4.59259 21.2416L8.61111 18.9453L12.6296 21.2416L0 29.8527Z" fill="#984995"/>
<path d="M12.6289 36.7402V21.2402L17.2215 24.1106V28.7032L12.6289 36.7402Z" fill="#63B22F"/>
<path d="M12.6289 36.7417L17.2215 28.7046L21.8141 26.9824H30.9993L12.6289 36.7417Z" fill="#017F36"/>
<path d="M12.6289 16.0741V0L17.2215 8.03704V18.9444L12.6289 16.0741Z" fill="#FAB718"/>
<path d="M21.24 10.9074H30.4252L12.7435 0.0702197L17.2215 8.03704L21.24 10.9074Z" fill="#ED6F26"/>
<path d="M17.2215 12.6302L21.2401 10.908L30.4252 10.908L17.2215 18.9451L17.2215 12.6302Z" fill="#D90751"/>
</svg>
