<svg width="34" height="39" viewBox="0 0 34 39" fill="none" xmlns="http://www.w3.org/2000/svg">
<path d="M11.3468 13.9798L12.4935 12.6192C12.6375 12.4484 12.7164 12.2322 12.7164 12.0088C12.7164 11.8355 12.6689 11.6655 12.579 11.5174L10.9028 8.75513L10.5543 8.38427C10.1942 8.02821 9.63395 7.97287 9.21113 8.25158L8.44988 8.75339C8.20781 8.91296 7.99974 9.11887 7.83767 9.35926L7.59449 9.71993C7.10771 10.4419 6.84766 11.2928 6.84766 12.1636V12.5819C6.84766 13.632 7.1357 14.6619 7.68044 15.5596L8.05339 16.1742C8.48269 16.8817 9.01525 17.5211 9.63345 18.0712L13.6628 21.6569C14.4663 22.372 15.3961 22.9308 16.4046 23.3047L16.5514 23.3591C17.0818 23.5558 17.6332 23.6902 18.1947 23.7596L19.0286 23.8627C19.5502 23.9271 20.0796 23.8752 20.5788 23.7107C21.2907 23.4761 21.9104 23.0226 22.3493 22.415L22.9572 21.5735C23.127 21.3384 23.2184 21.0557 23.2184 20.7656C23.2184 20.2841 22.9674 19.8374 22.556 19.587L19.6817 17.8381C19.378 17.6533 19.0084 17.6109 18.6707 17.7222C18.4151 17.8065 18.1947 17.9733 18.0442 18.1965L17.8189 18.5307C17.7131 18.6876 17.5772 18.8221 17.4191 18.9263L17.2025 19.0691C16.9111 19.2612 16.5395 19.2842 16.2266 19.1295C16.1519 19.0926 16.0823 19.0463 16.0193 18.9918L11.4288 15.0202C11.2657 14.8791 11.172 14.6741 11.172 14.4585C11.172 14.2833 11.2339 14.1137 11.3468 13.9798Z" fill="#FFFBFB"/>
<path d="M25.5595 14.5479C25.5595 9.55951 21.3705 5.51562 16.2031 5.51562" stroke="white" stroke-width="0.7"/>
<path d="M20.8813 14.5474C20.8813 12.0532 18.7868 10.0312 16.2031 10.0312" stroke="white" stroke-width="0.7"/>
<path d="M23.2204 14.5476C23.2204 10.8064 20.0787 7.77344 16.2031 7.77344" stroke="white" stroke-width="0.7"/>
<path d="M14.1863 29.139H21.3031C27.4844 29.139 32.4521 24.0473 32.2997 17.8678L32.1483 11.7288C32.0011 5.76112 27.1211 1 21.1516 1H12.2923C6.10419 1 1.13381 6.10242 1.29604 12.2884L1.52816 21.1398C1.62434 24.8071 4.31813 27.8863 7.94015 28.469V28.469" stroke="white" stroke-width="2"/>
<path d="M6.84766 28.0957V35.9989L15.6192 28.6602" stroke="white" stroke-width="2"/>
</svg>
