<svg width="36" height="33" viewBox="0 0 36 33" fill="none" xmlns="http://www.w3.org/2000/svg">
<path d="M14.9701 14.5401L16.2536 13.1376C16.4061 12.971 16.4907 12.7534 16.4907 12.5275C16.4907 12.3507 16.4388 12.1779 16.3416 12.0303L14.4849 9.21268L14.0994 8.83499C13.6943 8.46612 13.0946 8.40806 12.6263 8.69236L11.7976 9.19538C11.513 9.36815 11.2652 9.59537 11.0685 9.86403L10.8491 10.1636C10.2974 10.9172 10 11.8268 10 12.7608V13.1081C10 14.1758 10.3131 15.2201 10.9006 16.1117L11.3603 16.8092C11.8173 17.5027 12.3764 18.1232 13.0188 18.6496L17.4854 22.3098C18.409 23.0667 19.4607 23.6519 20.5908 24.0378L20.7206 24.0821C21.3151 24.2851 21.9297 24.4233 22.5538 24.4943L23.5047 24.6025C24.0609 24.6658 24.6242 24.6146 25.1598 24.452C25.9654 24.2075 26.6763 23.7211 27.1959 23.0587L27.8208 22.2621C28.0053 22.0269 28.1056 21.7366 28.1056 21.4376C28.1056 20.9542 27.8445 20.5085 27.4228 20.2722L24.1885 18.46C23.8538 18.2725 23.4571 18.2294 23.0899 18.3409C22.7977 18.4296 22.5422 18.6107 22.3619 18.8571L22.1503 19.146C22.0224 19.3207 21.8612 19.4685 21.6761 19.5809L21.452 19.7169C21.1265 19.9145 20.7243 19.9383 20.3777 19.7806C20.2919 19.7415 20.2112 19.692 20.1374 19.6332L15.052 15.5816C14.8818 15.446 14.7826 15.2402 14.7826 15.0226C14.7826 14.844 14.8495 14.6718 14.9701 14.5401Z" fill="#FFFBFB"/>
<path d="M4.24276 21.3987L2.53408 31.279L11.7612 29.651" stroke="white" stroke-width="2"/>
<path d="M4.45699 22.4703C3.44313 20.5066 2.875 18.305 2.875 15.9797C2.875 7.70663 10.0662 1 18.9371 1C27.8079 1 34.9991 7.70663 34.9991 15.9797C34.9991 24.2527 27.8079 30.9594 18.9371 30.9594C16.1289 30.9594 13.4891 30.2873 11.1924 29.1062" stroke="white" stroke-width="2"/>
</svg>
