<svg width="26" height="25" viewBox="0 0 26 25" fill="none" xmlns="http://www.w3.org/2000/svg">
<path d="M10.6907 11.1708L11.6075 10.169C11.7164 10.05 11.7768 9.89456 11.7768 9.73324C11.7768 9.60698 11.7398 9.48349 11.6703 9.37806L10.3441 7.3655L10.0688 7.09572C9.77939 6.83225 9.35107 6.79078 9.01653 6.99385L8.42463 7.35314C8.22132 7.47655 8.04435 7.63885 7.90385 7.83075L7.74715 8.04476C7.35307 8.583 7.14062 9.23275 7.14062 9.89984V10.148C7.14062 10.9106 7.36429 11.6565 7.78393 12.2934L8.11224 12.7916C8.43867 13.2869 8.83807 13.7301 9.29692 14.1062L12.4873 16.7206C13.147 17.2612 13.8983 17.6792 14.7055 17.9548L14.7982 17.9865C15.2228 18.1315 15.6619 18.2302 16.1077 18.281L16.7868 18.3583C17.1841 18.4035 17.5865 18.3669 17.9691 18.2508C18.5445 18.0761 19.0522 17.7287 19.4234 17.2555L19.8698 16.6865C20.0016 16.5185 20.0732 16.3111 20.0732 16.0976C20.0732 15.7523 19.8867 15.434 19.5854 15.2652L17.2753 13.9708C17.0362 13.8368 16.7528 13.8061 16.4906 13.8856C16.2819 13.949 16.0994 14.0784 15.9705 14.2544L15.8194 14.4607C15.728 14.5855 15.6129 14.6911 15.4807 14.7714L15.3206 14.8685C15.0881 15.0097 14.8008 15.0267 14.5533 14.914C14.492 14.8861 14.4343 14.8507 14.3816 14.8087L10.7492 11.9148C10.6276 11.8179 10.5568 11.6709 10.5568 11.5155C10.5568 11.3879 10.6046 11.2649 10.6907 11.1708Z" fill="black"/>
<path d="M3.03054 16.0698L1.81006 23.1272L8.40085 21.9643" stroke="black" stroke-width="2"/>
<path d="M3.18468 16.8359C2.46049 15.4333 2.05469 13.8607 2.05469 12.1998C2.05469 6.29045 7.19128 1.5 13.5276 1.5C19.8639 1.5 25.0005 6.29045 25.0005 12.1998C25.0005 18.1091 19.8639 22.8995 13.5276 22.8995C11.5218 22.8995 9.63616 22.4195 7.99568 21.5759" stroke="black" stroke-width="2"/>
</svg>
